<svg width="62" height="62" viewBox="0 0 62 62" fill="none" xmlns="http://www.w3.org/2000/svg">
<rect x="0.5" y="0.5" width="61" height="61" rx="13.78" fill="white"/>
<rect x="0.5" y="0.5" width="61" height="61" rx="13.78" stroke="#B7B7B7"/>
<g clip-path="url(#clip0_129_1127)">
<path d="M47.6492 18.1845L47.6425 18.191C47.7864 18.5896 47.9204 18.9932 48.0352 19.4048C47.9187 18.9926 47.7938 18.5841 47.6492 18.1845ZM31.5 6.83301L19.3467 11.8677L26.3293 18.8505C27.6941 17.4763 29.5489 16.7006 31.4856 16.694C33.4224 16.6873 35.2824 17.4503 36.6566 18.8151C38.0308 20.1799 38.8065 22.0347 38.8132 23.9714C38.8198 25.9082 38.0568 27.7682 36.692 29.1424L46.9688 18.8643L47.6425 18.191C46.4473 14.867 44.2558 11.9922 41.3669 9.95961C38.478 7.92703 35.0323 6.83518 31.5 6.83301Z" fill="#4285F4"/>
<path d="M31.5 31.3136C30.0562 31.3134 28.6448 30.8853 27.4442 30.0834C26.2435 29.2815 25.3074 28.1417 24.7541 26.8081C24.2009 25.4745 24.0552 24.0069 24.3356 22.5905C24.6159 21.1742 25.3097 19.8727 26.3293 18.8504L19.3467 11.8677C17.7483 13.4618 16.4808 15.3561 15.6168 17.4417C14.7529 19.5273 14.3096 21.763 14.3125 24.0204C14.3125 31.5927 18.2056 36.3384 22.7859 41.2079C23.0931 41.5221 23.3487 41.87 23.6383 42.1955L36.6334 29.2002C35.2687 30.5553 33.4232 31.3151 31.5 31.3136Z" fill="#FFBA00"/>
<path d="M31.5 6.83301C26.9416 6.83301 22.5699 8.64383 19.3466 11.8671C16.1233 15.0904 14.3125 19.4621 14.3125 24.0205C14.309 26.0368 14.6254 28.0409 15.2499 29.9581L37.3367 7.87216C35.4664 7.18883 33.4912 6.83717 31.5 6.83301Z" fill="#0066DA"/>
<path d="M33.0488 53.0498C34.61 48.706 36.9593 44.6875 39.9788 41.1963C44.9021 36.1939 48.6875 31.5929 48.6875 24.0201C48.6835 22.029 48.3322 20.0539 47.6492 18.1836L23.6383 42.1945C26.4026 45.3367 28.5023 49.0059 29.811 52.9811C29.9208 53.3197 30.1333 53.6158 30.419 53.8282C30.7048 54.0406 31.0495 54.1587 31.4054 54.1663C31.7614 54.1738 32.1108 54.0704 32.4053 53.8703C32.6998 53.6703 32.9247 53.3835 33.0488 53.0498Z" fill="#00AC47"/>
<path d="M29.811 52.9811C29.4593 51.9458 29.0637 50.9394 28.624 49.962C29.0582 50.9422 29.4593 51.9449 29.811 52.9811Z" fill="white"/>
<path d="M33.2992 52.4555C33.7021 51.4392 34.1353 50.4407 34.5987 49.4601C34.1324 50.4387 33.7021 51.4391 33.2992 52.4555ZM36.1063 46.585C35.6114 47.4369 35.1609 48.3154 34.7313 49.2047C35.1609 48.3145 35.6131 47.438 36.1063 46.585Z" fill="white"/>
<path d="M19.3467 11.8677C17.7483 13.4618 16.4808 15.3561 15.6168 17.4417C14.7529 19.5273 14.3096 21.763 14.3125 24.0204C14.309 26.0368 14.6254 28.0409 15.2499 29.958L26.3437 18.8642L19.3467 11.8677Z" fill="#EA4435"/>
</g>
<defs>
<clipPath id="clip0_129_1127">
<rect width="55" height="55" fill="white" transform="translate(4 3)"/>
</clipPath>
</defs>
</svg>
