<svg width="2902" height="1355" viewBox="0 0 2902 1355" fill="none" xmlns="http://www.w3.org/2000/svg">
<rect width="2902" height="1355" fill="white"/>
<g clip-path="url(#clip0_406_3)">
<rect x="222" y="166" width="1024" height="1024" rx="200" fill="white"/>
<path d="M1133.84 909.165C1133.95 908.111 1134.02 907.045 1134.04 905.975C1134.04 903.774 1133.5 904.159 1133.84 909.165Z" fill="black" fill-opacity="0.12"/>
<path d="M1155.67 1048.4C1153.94 1045.1 1152.68 1044.99 1153.09 1041.42C1153.5 1037.84 1151.43 1035.92 1149.36 1030.08C1147.28 1024.25 1150.85 1024.25 1152.75 1018.64C1154.65 1013.03 1150.24 1009.62 1145.21 1006.76C1140.19 1003.9 1144.4 998.122 1147.15 995.756C1149.9 993.39 1148.81 991.08 1147.15 983.048C1145.48 975.016 1146.13 975.401 1147.62 969.789C1149.12 964.178 1144.64 961.262 1141.41 962.803C1138.18 964.343 1138.96 954.111 1140.53 946.904C1142.09 939.697 1138.49 937.331 1135.67 921.267C1134.93 917.327 1134.39 913.298 1134.04 909.219C1133.63 912.858 1133.01 916.43 1132.21 919.892C1131.07 925.65 1130.84 931.782 1131.56 937.717C1131.97 944.813 1128.17 949.709 1127.42 952.625C1126.67 955.541 1129.22 955.266 1131.02 957.686C1132.82 960.107 1129.86 960.657 1126.47 962.528C1123.07 964.398 1125.45 966.214 1126.47 970.835C1127.49 975.456 1124.67 972.595 1119.17 974.741C1113.67 976.886 1124.19 983.433 1125.21 989.044C1126.23 994.656 1120.9 986.074 1116.79 990.695C1112.68 995.316 1122.94 1000.38 1126.4 1005.71C1129.86 1011.05 1123.79 1008.63 1119.95 1008.35C1116.11 1008.08 1119.95 1010.66 1122.84 1014.46C1125.72 1018.26 1120.56 1016.39 1116.96 1015.51C1113.36 1014.63 1119.07 1019.19 1120.9 1024.53C1122.73 1029.86 1118.76 1034.6 1114.11 1034.87C1109.46 1035.15 1112.72 1030.8 1114.92 1025.41C1117.13 1020.02 1115.47 1022 1114.21 1018.04C1112.95 1014.08 1116.01 1012.98 1115.71 1008.35C1115.4 1003.73 1109.66 1005.16 1108.71 1001.86C1107.76 998.562 1112.31 997.792 1113.26 994.821C1114.21 991.85 1110.44 994.106 1109.32 992.345C1108.2 990.585 1109.56 988.659 1113.19 982.773C1116.83 976.886 1113.57 975.016 1110.58 974.246C1107.59 973.475 1110.27 970.835 1110.1 967.644C1109.93 964.453 1107.76 962.143 1105.96 960.492C1104.16 958.842 1105.55 955.541 1106.81 949.489C1108.06 943.438 1104.06 944.868 1104.06 940.962C1104.02 936.482 1103.15 932.125 1101.55 928.474C1099.34 921.707 1100.83 911.97 1100.59 908.834C1100.36 905.698 1100.15 914.336 1099.58 918.517C1098.98 922.985 1098.54 927.503 1098.25 932.05C1097.95 937.221 1094.55 943.713 1091.66 950.095C1088.78 956.476 1093.29 953.891 1095.5 956.201C1097.71 958.512 1095.91 959.282 1094.31 960.272C1093.24 960.932 1092.33 962.136 1091.72 963.703C1091.11 965.27 1090.83 967.116 1090.92 968.964C1091.12 973.806 1088.27 973.42 1083.89 972.76C1079.51 972.1 1082.87 976.171 1085.55 979.637C1088.23 983.103 1090.48 985.138 1090.88 987.669C1091.29 990.2 1089.15 991.85 1086.16 990.475C1083.18 989.099 1083.58 987.559 1080.9 989.044C1078.22 990.53 1079.34 993.5 1082.33 994.546C1085.31 995.591 1089.69 995.976 1090.24 999.442C1090.78 1002.91 1082.19 1002.69 1081 1003.07C1079.81 1003.46 1086.2 1010.11 1087.45 1013.2C1088.71 1016.28 1085.96 1013.2 1082.67 1011.88C1079.37 1010.55 1085.86 1015.12 1087.15 1019.14C1088.44 1023.15 1085.48 1018.53 1081.72 1019.14C1077.95 1019.74 1082.33 1020.84 1084.43 1023.7C1085.81 1026.23 1086.53 1029.52 1086.43 1032.89L1093.23 1042.02C1093.23 1042.02 1111.22 1058.53 1114.92 1065.79C1118.63 1073.05 1127.32 1076.19 1132.92 1079.76C1138.52 1083.34 1136.76 1083.34 1136.69 1072.78C1136.3 1067.05 1136.73 1061.25 1137.95 1055.83C1138.73 1053.03 1142.26 1054.68 1146.67 1060.67C1147.37 1061.74 1148.2 1062.55 1149.11 1063.03C1150.02 1063.51 1150.98 1063.65 1151.93 1063.45C1152.88 1063.24 1153.79 1062.69 1154.59 1061.84C1155.39 1060.99 1156.06 1059.86 1156.55 1058.53C1158.49 1054.9 1157.4 1051.71 1155.67 1048.4ZM1093.91 984.643C1091.49 987.119 1092 981.397 1091.94 979.967C1091.87 978.537 1093.67 978.262 1093.91 978.097C1094.92 977.271 1096.28 982.168 1093.91 984.643ZM1094.82 972.1C1090.65 974.466 1092 969.955 1091.9 968.414C1091.8 966.874 1093.29 967.259 1094.69 967.644C1096.08 968.029 1097.2 965.278 1097.2 965.278C1098.18 963.628 1099 966.049 1099.41 968.029C1099.81 970.01 1099.03 969.735 1094.82 972.1ZM1133.57 1071.84C1133.33 1078.72 1132.45 1078.61 1130.68 1076.52C1128.91 1074.43 1123.89 1071.01 1119.81 1066.89C1115.74 1062.76 1113.02 1059.13 1116.11 1060.4C1119.2 1061.66 1120.46 1059.24 1119.51 1056.11C1118.56 1052.97 1124.47 1051.04 1128.23 1051.15C1132 1051.27 1132.51 1054.35 1133.53 1057.7C1133.57 1057.7 1133.8 1064.96 1133.57 1071.84ZM1129.76 971.22C1126.16 971.22 1127.73 967.259 1128.91 965.333C1130.1 963.408 1133.74 966.874 1133.74 966.874C1133.74 966.874 1134.72 968.689 1134.69 969.789C1134.65 970.89 1133.4 971.275 1129.76 971.22Z" fill="black" fill-opacity="0.12"/>
<path d="M512.985 467.129C515.468 472.289 517.344 478.144 518.52 484.403C520.014 491.28 521.27 498.597 522.798 505.914C523.579 509.6 524.428 513.286 525.447 516.916C525.957 518.787 526.534 520.602 527.145 522.418L527.79 524.178L528.333 525.279C528.921 526.457 529.62 527.478 530.405 528.304C532.795 530.332 535.397 531.619 538.079 532.1C538.957 532.351 539.812 532.776 540.625 533.366C541.202 533.873 541.666 534.663 541.95 535.621L555.532 575.506C557.68 582.454 560.386 588.91 563.58 594.706C565.243 597.635 567.06 600.323 569.013 602.738C570.018 604.012 571.086 605.153 572.205 606.149C573.183 607.071 574.234 607.774 575.329 608.239L614.514 683.993C627.621 709.52 640.796 734.881 653.733 760.573C657.978 772.291 662.154 784.119 666.195 796.002C668.232 801.943 670.236 807.995 672.137 814.046C673.953 820.384 675.982 826.554 678.216 832.531C683.774 843.277 690.258 852.67 697.469 860.423C704.29 868.268 710.758 876.89 716.824 886.224C719.764 890.896 722.499 895.896 725.007 901.188C727.528 906.902 730.346 912.258 733.428 917.197C739.699 926.925 746.745 935.251 754.379 941.953C761.815 948.83 769.557 954.552 776.382 961.758C778.073 963.419 779.695 965.257 781.238 967.26L782.325 968.8C782.268 969.282 782.165 969.746 782.019 970.175C780.085 975.544 777.657 980.404 774.821 984.589C762.532 1003.02 749.656 1020.39 736.246 1036.63L711.594 1066.94H726.161C731.255 1060.34 736.348 1053.74 741.442 1047.03C754.832 1029.97 767.566 1011.59 779.574 992.016C782.858 986.868 785.599 980.884 787.69 974.301C788.458 971.628 788.579 968.585 788.029 965.774C787.647 964.228 787.013 962.879 786.196 961.868L784.905 960.108C783.151 957.9 781.326 955.843 779.439 953.946C771.968 946.465 764.192 941.018 756.892 934.581C749.563 928.453 742.769 920.776 736.688 911.751C733.716 907.127 730.98 902.123 728.504 896.787C725.824 891.273 722.884 886.104 719.71 881.328C713.399 872.016 706.73 863.361 699.744 855.417C692.811 848.107 686.557 839.234 681.17 829.065C679.018 823.353 677.057 817.458 675.295 811.406C673.36 805.299 671.288 799.303 669.251 793.306C665.108 781.313 660.864 769.485 656.484 757.712C643.275 732.241 630.405 706.384 617.4 680.693L578.453 603.673L577.943 602.683H576.89C576.079 602.355 575.301 601.836 574.582 601.143C573.666 600.278 572.792 599.304 571.967 598.227C570.248 595.949 568.647 593.446 567.179 590.745C564.25 585.214 561.773 579.094 559.811 572.535L547.009 532.21C546.262 529.747 545.08 527.698 543.614 526.324C542.341 525.234 540.981 524.438 539.573 523.958C537.593 523.537 535.668 522.608 533.868 521.208C533.677 521.011 533.506 520.77 533.359 520.492L532.85 519.337C532.85 519.722 532.85 518.787 532.612 518.567C532.087 517.058 531.622 515.496 531.22 513.891C530.356 510.55 529.608 507.134 528.979 503.658C527.586 496.616 526.466 489.245 524.972 481.653C523.726 474.911 521.86 468.513 519.437 462.673L519.607 462.178C519.712 461.802 519.803 461.416 519.878 461.022C519.952 460.257 519.952 459.477 519.878 458.712C519.806 457.441 519.498 456.236 518.995 455.254C518.492 454.273 517.817 453.56 517.06 453.21C516.3 452.93 515.511 452.93 514.751 453.21L513.698 453.706C513.142 453.975 512.597 454.306 512.068 454.696C510.177 455.963 508.339 457.434 506.568 459.097C503.172 462.178 499.776 465.534 496.381 469.054C489.645 476.122 483.455 484.47 477.943 493.921C476.478 496.525 475.181 499.364 474.072 502.393C473.164 504.796 472.154 507.093 471.049 509.27C468.74 513.836 466.194 518.402 463.613 522.913C458.418 531.935 453.121 541.013 447.959 550.42C442.59 559.884 437.674 569.999 433.256 580.677C430.811 586.949 429.555 592.01 427.586 597.182C425.656 602.257 423.559 607.16 421.304 611.87C419.029 616.602 416.618 621.223 414.105 625.899L410.506 633.216C409.861 634.536 409.216 635.911 408.536 637.507C407.942 638.97 407.409 640.495 406.94 642.073C403.884 650.16 397.433 658.082 391.592 665.564C388.28 669.496 385.2 673.916 382.39 678.767C379.603 683.821 377.166 689.356 375.124 695.271C371.283 706.429 367.881 717.968 364.937 729.82C361.813 741.263 359.198 753.311 356.04 763.819C352.726 774.647 348.876 785.024 344.529 794.846C340.183 804.804 335.429 814.376 330.641 824.059L323.409 838.802C320.802 844.03 318.527 849.67 316.617 855.637C315.35 861.182 313.722 866.493 311.762 871.481C309.792 876.487 307.517 881.383 305.208 886.389C300.568 896.319 296.24 906.62 292.237 917.252L255.53 981.728L237.092 1014.08C230.878 1024.69 224.359 1034.87 217.805 1044.99C204.528 1065.02 190.912 1084.44 177.228 1103.64C163.543 1122.84 149.316 1141.49 135.733 1161.02C133.267 1164.55 130.62 1167.73 127.822 1170.54L133.119 1166.68C134.239 1165.31 135.36 1163.88 136.514 1162.28C150.097 1142.92 164.222 1124.38 178.009 1105.34C191.795 1086.31 205.751 1067.38 219.265 1047.74C226.056 1037.95 232.848 1028.05 239.231 1017.65L258.315 986.185L296.413 923.249V922.974C300.606 912.592 305.14 902.583 309.996 892.991C312.373 888.15 314.851 883.199 317.127 877.807C319.394 872.406 321.306 866.635 322.831 860.588C324.62 855.631 326.689 850.953 329.011 846.614L336.414 832.476C341.439 823.013 346.397 813.276 351.049 803.098C355.781 792.798 360.005 781.908 363.68 770.53C367.416 758.757 369.962 747.314 373.086 735.982C375.965 724.781 379.253 713.869 382.933 703.303C384.687 698.36 386.758 693.731 389.113 689.495C391.607 685.337 394.323 681.544 397.229 678.162C400.285 674.201 403.341 670.24 406.329 665.894C409.661 661.32 412.536 655.938 414.852 649.94C415.207 648.713 415.603 647.519 416.041 646.364C416.448 645.374 416.957 644.274 417.535 643.118L421.134 636.186C423.647 631.455 426.193 626.559 428.604 621.443C431.046 616.272 433.313 610.891 435.396 605.324C437.501 599.822 439.199 593.331 440.93 589.095C445.002 579.03 449.543 569.485 454.513 560.542L469.861 533.035C472.442 528.304 474.988 523.573 477.467 518.347C478.726 515.661 479.861 512.83 480.863 509.875C481.686 507.509 482.665 505.296 483.783 503.273C488.731 494.433 494.304 486.567 500.388 479.837C503.444 476.371 506.601 473.07 509.793 470.045C511.151 468.669 512.068 468.174 512.985 467.129Z" fill="black" fill-opacity="0.12"/>
<path fill-rule="evenodd" clip-rule="evenodd" d="M514.718 458.987C510.292 472.034 507.971 486.681 507.971 501.568C507.971 516.455 510.292 531.102 514.718 544.149C529.726 591.956 532.579 614.676 527.519 636.627C522.46 658.577 494.344 732.901 512.646 710.235C530.949 687.57 539.811 657.532 538.759 689.77C537.706 722.008 526.84 814.872 532.477 811.901C538.114 808.93 547.825 780.048 551.356 800.898C554.888 821.748 556.178 854.152 539.743 864.329C523.309 874.507 488.096 909.881 497.366 886.335C506.636 862.789 523.546 837.427 513.156 844.084C502.765 850.741 473.427 905.15 477.332 891.451C481.237 877.753 502.018 845.68 491.865 851.566C481.712 857.453 430.269 944.649 440.931 938.103C451.593 931.556 485.889 891.066 477.672 906.8C469.454 922.534 475.295 932.106 487.621 917.363C499.947 902.619 504.191 897.283 505.617 899.813C507.044 902.344 515.804 888.81 519.438 900.253C523.071 911.696 517.027 933.262 521.849 955.762C526.67 978.263 534.175 980.023 528.64 999.223C523.105 1018.42 521.102 1042.74 531.186 1060.34C541.271 1077.95 533.02 1107.77 539.302 1129.28C545.584 1150.79 558.861 1216.69 527.417 1194.74C495.974 1172.79 467.96 1141.05 444.259 1130.87C420.557 1120.69 400.116 1142.26 393.494 1133.62C386.873 1124.98 381.882 1123.44 369.555 1126.97C357.229 1130.49 350.2 1133.24 364.224 1107.38C378.248 1081.52 397.094 1032.12 374.411 1056.82C351.728 1081.52 343.851 1125.37 315.905 1141.82C287.959 1158.27 277.942 1171.64 266.567 1180.33C255.192 1189.02 261.371 1188.86 233.765 1188.86C206.159 1188.86 160.963 1183.35 145.955 1202.17C145.955 1202.17 171.218 1171.69 180.59 1167.95C189.962 1164.21 182.661 1145.12 194.172 1143.03C205.683 1140.94 215.667 1147.71 227.042 1126.97C238.417 1106.23 243.001 1103.03 256.312 1101.49C269.623 1099.95 285.175 1082.18 284.36 1078C283.545 1073.82 278.791 1078.77 272.271 1084.27C265.752 1089.78 281.949 1047.03 298.859 1036.08C315.769 1025.13 319.233 1047.09 332.509 1009.51C345.786 971.936 352.883 948.72 366.466 932.491C380.048 916.262 394.989 897.998 387.518 909.331C380.048 920.663 365.515 964.784 354.004 981.674C342.493 998.563 330.744 1020.68 325.413 1030.2C320.081 1039.71 313.019 1060.18 326.329 1041.2C339.64 1022.22 359.708 993.392 369.623 971.496C379.539 949.601 378.52 931.831 382.9 901.739C387.28 871.646 393.087 866.035 398.962 848.375C404.836 830.716 422.086 796.497 404.666 823.839C387.247 851.181 311.966 959.833 300.693 974.577C289.419 989.321 279.81 994.767 265.718 1009.57C251.626 1024.36 251.32 1031.9 239.741 1038.72C228.162 1045.54 212.577 1052.86 238.315 1016.72C264.054 980.573 297.399 915.877 304.088 895.137C310.778 874.397 336.55 816.302 347.756 799.578C358.961 782.854 366.805 737.027 373.868 715.957C380.931 694.887 405.685 655.112 415.872 635.197C426.058 615.282 439.098 583.319 447.892 562.798C456.687 542.278 466.534 532.046 474.208 514.881C480.363 500.051 488.116 487.137 497.094 476.757C505.006 467.845 514.718 458.987 514.718 458.987Z" fill="black" fill-opacity="0.12"/>
<path d="M1093.58 466.779C1097.58 460.957 1101.28 454.589 1104.61 447.745C1107.77 440.318 1106.48 439.162 1110.21 435.641C1113.95 432.121 1132.66 422.658 1131.23 417.982C1130.49 415.616 1101.79 426.674 1097.28 428.545C1095.25 428.887 1093.3 430.015 1091.6 431.835C1089.9 433.654 1088.49 436.111 1087.5 438.997C1083.59 447.414 1079.93 453.961 1079.93 453.961L1093.58 466.779Z" fill="black" fill-opacity="0.12"/>
<path d="M1114.76 421.943C1122.95 419.137 1130.86 416.442 1131.23 417.982C1131.91 420.182 1128.01 423.483 1123.35 426.784C1120.55 424.89 1117.69 423.273 1114.76 421.943Z" fill="black" fill-opacity="0.12"/>
<path d="M1076.4 455.501C1078.4 456.326 1085.16 455.996 1090.28 461.003C1095.41 466.009 1098.4 474.646 1100.71 476.186C1103.02 477.727 1112.25 483.173 1108.86 484.218C1105.46 485.264 1096.36 479.267 1093.85 478.277C1091.34 477.287 1077.14 474.261 1074.15 470.245C1071.17 466.229 1070.76 463.588 1068.89 462.488C1067.38 461.208 1065.75 460.335 1064.07 459.902C1063.08 459.902 1058.43 460.728 1058.74 459.902C1059.04 459.077 1064.04 456.547 1064.51 455.226C1065.34 453.613 1066.46 452.464 1067.72 451.94C1068.97 451.417 1070.3 451.547 1071.51 452.31C1075.07 454.676 1076.4 455.501 1076.4 455.501Z" fill="black" fill-opacity="0.12"/>
<path d="M1052.45 401.257C1053.61 398.892 1062.13 414.405 1066.04 420.237C1069.94 426.068 1079.62 436.741 1082.57 441.032C1085.11 446.668 1087.09 452.903 1088.45 459.517C1089.43 463.423 1090.38 467.109 1091.33 470.024C1093.13 475.526 1098.67 480.202 1102.2 482.678C1098.81 481.082 1095.41 478.992 1093.95 478.442C1091.4 477.396 1077.24 474.426 1074.25 470.41C1071.27 466.394 1070.86 463.753 1068.99 462.653C1067.48 461.373 1065.85 460.5 1064.17 460.067C1062.45 460.426 1060.7 460.426 1058.97 460.067C1059.11 459.774 1059.22 459.461 1059.31 459.132C1061.16 458.106 1062.94 456.759 1064.61 455.116C1065.11 454.018 1065.78 453.146 1066.55 452.585C1067.5 452.409 1068.48 452.552 1069.4 453.006C1070.32 453.46 1071.18 454.216 1071.91 455.226C1072.86 456.271 1073.41 456.106 1073.34 453.355C1073.27 451.51 1073.13 449.674 1072.93 447.854C1072.08 440.097 1058.77 420.952 1055.61 416.221C1052.45 411.49 1051.3 403.623 1052.45 401.257Z" fill="black" fill-opacity="0.12"/>
<path d="M1055.51 416.551C1052.35 411.82 1051.3 403.623 1052.45 401.257C1053.07 399.992 1055.65 403.568 1058.5 408.134C1057.4 410.898 1056.49 413.85 1055.78 416.936L1055.51 416.551Z" fill="black" fill-opacity="0.12"/>
<path d="M1062.98 456.766C1062.37 458.361 1063.25 459.462 1063.93 460.122C1062.25 460.477 1060.55 460.477 1058.87 460.122C1059 459.829 1059.12 459.516 1059.21 459.187C1060.06 458.636 1061.86 457.646 1062.98 456.766Z" fill="black" fill-opacity="0.12"/>
<path d="M1093 477.067C1093.27 476.021 1095.31 479.047 1096.39 479.927C1097.48 480.808 1103.18 482.953 1103.18 484.219C1103.18 485.484 1098.67 483.008 1096.73 482.128C1095.13 481.301 1093.78 479.483 1093 477.067Z" fill="black" fill-opacity="0.12"/>
<path d="M1066.24 456.657C1066.22 456.831 1066.24 457.012 1066.3 457.165C1066.35 457.318 1066.44 457.431 1066.55 457.482C1066.6 457.516 1066.66 457.53 1066.72 457.523C1066.77 457.515 1066.83 457.487 1066.88 457.439C1066.93 457.391 1066.97 457.325 1067 457.247C1067.03 457.168 1067.05 457.079 1067.06 456.987C1067.07 456.9 1067.08 456.809 1067.07 456.72C1067.06 456.63 1067.04 456.544 1067.01 456.467C1066.99 456.39 1066.95 456.323 1066.9 456.27C1066.86 456.218 1066.81 456.181 1066.75 456.162C1066.7 456.137 1066.64 456.13 1066.59 456.142C1066.53 456.154 1066.48 456.184 1066.43 456.231C1066.38 456.277 1066.34 456.339 1066.31 456.412C1066.28 456.485 1066.25 456.569 1066.24 456.657Z" fill="black" fill-opacity="0.12"/>
<path d="M877.553 355.982C882.605 353.264 887.509 349.873 892.216 345.846C896.581 344.331 901.125 344.966 905.266 347.667C908.491 350.439 914.747 356.774 920.515 352.735C923.228 350.624 925.814 348.105 928.237 345.212C930.143 344.025 932.343 337.769 930.486 335.631C930.486 335.631 936.106 318.606 940.261 318.369C944.415 318.131 964.258 313.855 958.687 310.45C953.115 307.045 938.794 310.925 937.426 311.083C935.178 311.74 933.044 313.177 931.171 315.296C929.298 317.415 927.731 320.165 926.576 323.357C923.594 332.305 923.74 334.998 922.616 336.423C921.716 337.472 920.706 338.25 919.635 338.719C916.045 337.541 912.539 335.763 909.176 333.414C906.832 331.519 904.236 330.593 901.618 330.717C899 330.842 896.442 332.013 894.171 334.126C888.55 338.878 872.715 356.615 877.553 355.982Z" fill="black" fill-opacity="0.12"/>
<path d="M948.619 316.309C943.596 314.805 938.407 316.206 933.956 320.268C931.433 324.56 929.144 329.196 927.114 334.126C927.717 333.983 928.333 334.043 928.921 334.302C929.51 334.561 930.059 335.013 930.535 335.63C930.535 335.63 936.156 318.605 940.31 318.368C941.874 318.368 945.833 317.576 949.792 316.547L948.619 316.309Z" fill="black" fill-opacity="0.12"/>
<path d="M924.817 344.103C923.497 344.103 920.223 347.112 916.655 346.479C913.087 345.845 906.538 336.422 902.725 334.205C898.412 333.319 894.036 334.649 890.213 338.006C883.469 344.974 873.644 356.456 877.554 355.981C882.606 353.263 887.51 349.873 892.217 345.845C896.582 344.331 901.126 344.965 905.267 347.667C908.493 350.438 914.749 356.773 920.516 352.735C923.229 350.623 925.815 348.105 928.238 345.212C928.756 344.839 929.221 344.3 929.607 343.628C926.919 346.162 926.137 344.262 924.817 344.103Z" fill="black" fill-opacity="0.12"/>
<path d="M930.632 340.145C932.734 339.195 936.498 338.007 933.663 337.294C932.616 336.943 931.554 336.731 930.486 336.661C930.511 337.188 930.511 337.717 930.486 338.245C930.613 338.856 930.662 339.502 930.632 340.145Z" fill="black" fill-opacity="0.12"/>
<path d="M928.431 336.66C928.487 336.773 928.517 336.912 928.517 337.056C928.517 337.2 928.487 337.34 928.431 337.452C928.395 337.527 928.35 337.588 928.298 337.631C928.245 337.673 928.188 337.696 928.129 337.698C928.071 337.7 928.013 337.68 927.959 337.641C927.906 337.601 927.859 337.543 927.821 337.47C927.784 337.397 927.757 337.312 927.743 337.22C927.728 337.128 927.727 337.032 927.739 336.939C927.75 336.846 927.775 336.759 927.81 336.683C927.845 336.607 927.891 336.545 927.943 336.502C928.023 336.432 928.115 336.41 928.205 336.438C928.294 336.467 928.374 336.546 928.431 336.66Z" fill="black" fill-opacity="0.12"/>
<path d="M884.691 344.025C879.315 350.122 874.671 356.378 877.555 355.982C880.72 354.436 883.808 352.504 886.792 350.202C886.112 349.61 885.552 348.712 885.179 347.616C884.806 346.52 884.637 345.273 884.691 344.025Z" fill="black" fill-opacity="0.12"/>
<path d="M949.986 309.104C952.968 311.322 950.671 316.31 950.671 316.31C956.585 314.727 961.961 312.43 958.735 310.451C955.884 309.229 952.929 308.774 949.986 309.104Z" fill="black" fill-opacity="0.12"/>
<path d="M919.832 352.101C919.832 351.071 917.632 353.051 916.557 353.447C915.482 353.843 910.252 353.922 910.203 355.031C910.154 356.139 914.26 355.427 916.068 355.031C917.511 354.89 918.862 353.838 919.832 352.101Z" fill="black" fill-opacity="0.12"/>
<path d="M1058.91 308.982C1063.96 306.264 1068.86 302.873 1073.57 298.846C1077.93 297.331 1082.48 297.966 1086.62 300.667C1089.84 303.439 1096.1 309.774 1101.87 305.735C1104.58 303.624 1107.17 301.105 1109.59 298.212C1111.5 297.025 1113.7 290.769 1111.84 288.631C1111.84 288.631 1117.46 271.606 1121.61 271.369C1125.77 271.131 1145.61 266.855 1140.04 263.45C1134.47 260.045 1120.15 263.925 1118.78 264.083C1116.53 264.74 1114.4 266.177 1112.52 268.296C1110.65 270.415 1109.08 273.165 1107.93 276.357C1104.95 285.305 1105.09 287.998 1103.97 289.423C1103.07 290.472 1102.06 291.25 1100.99 291.719C1097.4 290.541 1093.89 288.763 1090.53 286.414C1088.19 284.519 1085.59 283.593 1082.97 283.717C1080.35 283.842 1077.8 285.013 1075.52 287.126C1069.9 291.878 1054.07 309.615 1058.91 308.982Z" fill="black" fill-opacity="0.12"/>
<path d="M1129.97 269.309C1124.95 267.805 1119.76 269.206 1115.31 273.268C1112.79 277.56 1110.5 282.196 1108.47 287.126C1109.07 286.983 1109.69 287.043 1110.27 287.302C1110.86 287.561 1111.41 288.013 1111.89 288.63C1111.89 288.63 1117.51 271.605 1121.66 271.368C1123.23 271.368 1127.19 270.576 1131.15 269.547L1129.97 269.309Z" fill="black" fill-opacity="0.12"/>
<path d="M1106.17 297.103C1104.85 297.103 1101.58 300.112 1098.01 299.479C1094.44 298.845 1087.89 289.422 1084.08 287.205C1079.77 286.319 1075.39 287.649 1071.57 291.006C1064.82 297.974 1055 309.456 1058.91 308.981C1063.96 306.263 1068.86 302.873 1073.57 298.845C1077.94 297.331 1082.48 297.965 1086.62 300.667C1089.85 303.438 1096.1 309.773 1101.87 305.735C1104.58 303.623 1107.17 301.105 1109.59 298.212C1110.11 297.839 1110.57 297.3 1110.96 296.628C1108.27 299.162 1107.49 297.262 1106.17 297.103Z" fill="black" fill-opacity="0.12"/>
<path d="M1111.99 293.145C1114.09 292.195 1117.85 291.007 1115.02 290.294C1113.97 289.943 1112.91 289.731 1111.84 289.661C1111.86 290.188 1111.86 290.717 1111.84 291.245C1111.97 291.856 1112.02 292.502 1111.99 293.145Z" fill="black" fill-opacity="0.12"/>
<path d="M1109.78 289.66C1109.84 289.773 1109.87 289.912 1109.87 290.056C1109.87 290.2 1109.84 290.34 1109.78 290.452C1109.75 290.527 1109.7 290.588 1109.65 290.631C1109.6 290.673 1109.54 290.696 1109.48 290.698C1109.42 290.7 1109.37 290.68 1109.31 290.641C1109.26 290.601 1109.21 290.543 1109.17 290.47C1109.14 290.397 1109.11 290.312 1109.1 290.22C1109.08 290.128 1109.08 290.032 1109.09 289.939C1109.1 289.846 1109.13 289.759 1109.16 289.683C1109.2 289.607 1109.24 289.545 1109.3 289.502C1109.38 289.432 1109.47 289.41 1109.56 289.438C1109.65 289.467 1109.73 289.546 1109.78 289.66Z" fill="black" fill-opacity="0.12"/>
<path d="M1066.04 297.025C1060.67 303.122 1056.02 309.378 1058.91 308.982C1062.07 307.436 1065.16 305.504 1068.15 303.202C1067.47 302.61 1066.91 301.712 1066.53 300.616C1066.16 299.52 1065.99 298.273 1066.04 297.025Z" fill="black" fill-opacity="0.12"/>
<path d="M1131.34 262.104C1134.32 264.322 1132.02 269.31 1132.02 269.31C1137.94 267.727 1143.31 265.43 1140.09 263.451C1137.24 262.229 1134.28 261.774 1131.34 262.104Z" fill="black" fill-opacity="0.12"/>
<path d="M1101.19 305.101C1101.19 304.071 1098.99 306.051 1097.91 306.447C1096.84 306.843 1091.61 306.922 1091.56 308.031C1091.51 309.139 1095.61 308.427 1097.42 308.031C1098.86 307.89 1100.22 306.838 1101.19 305.101Z" fill="black" fill-opacity="0.12"/>
<path d="M992.956 1089.83C992.793 1088.7 992.413 1087.68 991.87 1086.91C993.33 1091.98 993.737 1094.12 992.956 1089.83Z" fill="black" fill-opacity="0.12"/>
<path d="M1146.1 1133.07C1138.05 1121.3 1133.26 1087.19 1127.96 1079.87C1122.67 1072.56 1107.59 1034.49 1086.57 1000.21C1065.55 965.94 1073.26 970.726 1069.19 965.06C1065.11 959.393 1069.19 927.155 1042.56 913.567C1015.94 899.978 1007.96 826.04 1007.96 826.04C990.752 798.988 974.592 770.234 959.576 739.943C959.576 739.943 937.539 709.685 934.279 699.233H933.702C933.702 696.922 933.702 696.592 933.498 699.233C932.838 699.465 932.168 699.613 931.494 699.673C924.432 700.938 924.432 714.416 912.14 729.105C908.52 733.726 905.661 739.725 903.819 746.569C901.976 753.412 901.207 760.888 901.579 768.33C896.028 775.38 891.103 783.637 886.944 792.866C882.835 803.869 866.571 830.881 864.092 857.838C861.613 884.794 861.749 866.42 854.109 875.002C848.234 881.604 851.29 878.138 845.993 883.529L846.299 883.254L845.993 883.529C844.423 884.149 842.88 884.94 841.375 885.895L840.526 886.445C839.194 887.283 837.89 888.238 836.621 889.306C835.908 889.911 835.195 890.681 834.482 891.396C833.769 892.111 832.716 893.046 831.867 894.037C830.248 895.943 828.726 898.059 827.317 900.363C815.908 919.288 819.541 912.356 816.316 916.262C816.316 915.932 816.316 915.932 816.316 916.262C815.569 917.197 810.373 924.404 809.185 925.835L808.336 926.825L805.687 929.796L804.363 931.171C803.65 931.886 802.937 932.656 802.224 933.317L799.032 936.397H798.828L798.455 936.727L795.602 939.533L794.108 941.074L792.512 942.779C791.867 943.494 791.29 944.264 790.713 945.034C790.135 945.805 789.966 945.915 789.66 946.355C788.745 947.599 787.893 948.96 787.113 950.426L786.129 952.186L785.721 952.956L785.382 953.507C785.266 953.722 785.141 953.924 785.008 954.112L784.804 954.497L784.533 954.827L784.329 955.102H784.125H783.752C782.835 954.332 781.952 949.601 773.225 948.555H771.222H770.543H769.558H767.792H767.045H766.808L766.468 948.94C765.483 950.866 765.755 955.432 763.412 965.445L762.461 969.241C762.054 970.836 761.578 972.486 761.001 974.302C761.001 974.687 760.73 975.072 760.628 975.512L759.032 980.298L757.775 983.709L756.451 987.23C755.466 989.816 754.346 992.456 753.055 995.317C732.682 1042.74 753.055 995.317 720.254 1037.62C718.386 1040.04 716.858 1042.13 715.126 1044.06L713.7 1045.76C712.682 1047.03 711.697 1048.19 710.814 1049.18L709.49 1050.66C708.675 1051.6 707.894 1052.37 707.181 1053.14L706.196 1054.13C705.439 1054.91 704.657 1055.62 703.853 1056.27H703.649C703.025 1056.84 702.364 1057.3 701.68 1057.65H701.272C700.927 1057.81 700.575 1057.94 700.22 1058.03H699.405C699.169 1058.09 698.928 1058.09 698.692 1058.03H698.488C698.242 1057.93 698.019 1057.72 697.843 1057.43C697.443 1056.63 697.144 1055.71 696.96 1054.73L696.756 1054.02C696.688 1053.88 696.63 1053.74 696.586 1053.58L696.383 1053.19L695.907 1052.75H695.058H694.685L693.87 1053.25L693.395 1053.63C692.919 1054.07 692.342 1054.62 691.697 1055.34C688.359 1059.05 684.405 1061.04 680.355 1061.04C676.306 1061.04 672.352 1059.05 669.014 1055.34L660.423 1074.98L660.186 1075.69C658.759 1079.54 652.647 1095.88 644.702 1112.99C643.038 1116.57 641.306 1120.09 639.506 1123.61C630.576 1141.05 627.078 1171.75 616.959 1206.13H1039.37C1039.37 1204.97 1039.37 1203.65 1039.58 1202.28C1039.88 1197.88 1025.35 1183.52 1024.98 1172.35C1024.6 1162.72 1004.6 1141.49 1000.26 1127.96C999.984 1126.03 999.678 1124.16 999.373 1122.45C1000.56 1110.08 997.03 1112.5 993.498 1093.19C992.983 1090.19 992.29 1087.28 991.427 1084.49C991.644 1084.64 991.85 1084.82 992.038 1085.04C989.943 1077.65 987.383 1070.63 984.398 1064.08C977.267 1048.85 976.69 1042.74 976.69 1042.74V1016.17C976.69 1016.17 974.041 1009.4 970.748 1002.14C969.661 999.718 968.507 997.298 967.352 995.042C966.114 992.242 964.422 990.052 962.462 988.715L958.252 982.004L957.199 979.693C955.219 974.301 952.861 969.298 950.17 964.785C946.278 960.006 942.591 954.805 939.135 949.216C939.135 949.216 922.157 861.909 920.968 845.955C919.78 830.001 910.51 810.526 916.384 789.73C922.259 768.935 924.941 776.197 931.223 756.722C931.868 754.632 933.498 712.051 933.77 699.288C935.535 709.52 950.748 734.166 955.094 744.509C962.64 762.121 967.929 782.006 970.646 802.989C972.989 822.739 991.461 818.778 996.588 837.592C992.887 846.505 992.004 837.593 993.193 846.945C994.755 858.388 996.147 868.95 1001.72 875.937C1005.32 880.503 1000.56 900.913 1002.53 901.684C1003.69 904.324 1004.91 907.185 1006.37 910.321C1011.05 928.31 1012.89 915.822 1015.23 922.204C1017.57 928.585 1026.47 949.711 1027.25 938.048C1027.25 936.562 1049.63 972.926 1049.56 971.771C1069.32 973.257 1064.81 1023.59 1067.73 1024.86C1080.73 1030.36 1100.53 1077.01 1111.09 1089.23C1121.65 1101.44 1201.95 1208.06 1201.95 1208.06C1180.83 1179.78 1150.55 1139.34 1146.1 1133.07ZM681.985 1182.58C681.045 1185.7 679.907 1188.65 678.59 1191.39C679.601 1186.58 681.247 1182.19 683.411 1178.51L681.985 1182.58ZM865.552 960.713L879.372 956.147C872.207 966.682 865.405 977.848 858.998 989.596C855.08 995.749 850.804 1001.28 846.231 1006.1C841.85 1011.6 844.295 1015.56 837.98 1018.92C832.635 1021.65 827.824 1026.6 824.024 1033.28C821.247 1037.92 818.067 1041.89 814.584 1045.05C811.343 1048.8 808.461 1053.31 806.027 1058.42L799.236 1066.67C801.425 1059.17 804.427 1052.37 808.098 1046.59C812.513 1041.42 816.655 1032.78 821.137 1028.93C825.619 1025.08 828.642 1021.01 833.803 1017.05C838.964 1013.09 836.655 1015.67 840.9 1008.8C845.144 1001.92 850.543 994.767 851.528 993.282C852.513 991.796 852.207 986.515 853.939 985.36C855.671 984.204 865.552 960.603 865.552 960.603V960.713ZM699.948 1138.24C704.193 1133.4 726.57 1099.73 732.546 1095.22C740.526 1088.95 719.439 1121.57 714.176 1128.84C708.912 1136.1 695.703 1143.08 699.948 1138.13V1138.24ZM754.821 1103.91C743.378 1121.13 734.447 1140.72 726.739 1146.17C719.031 1151.61 707.962 1155.85 706.094 1162.28C702.319 1172.42 697.234 1181.11 691.187 1187.76C691.187 1187.76 704.974 1154.03 707.045 1150.95C709.116 1147.87 714.142 1150.95 726.909 1139.95C739.677 1128.95 746.672 1110.24 753.225 1097.31C759.779 1084.38 770.611 1065.95 770.611 1065.95C770.611 1065.95 796.621 1035.81 802.835 1025.74C809.049 1015.67 818.081 979.418 825.178 965.775C832.275 952.131 838.048 968.8 838.048 968.8C815.161 998.398 818.251 1014.79 810.645 1025.19C818.115 1015.45 823.48 1009.84 823.48 1009.84C833.672 989.068 844.819 969.575 856.825 951.526C864.805 939.643 852.139 967.37 844.261 986.79C836.384 1006.21 826.095 1014.85 815.093 1029.87C804.091 1044.88 798.93 1053.47 786.774 1068.71C774.617 1083.94 778.624 1074.98 793.565 1050.22C798.917 1041.36 804.586 1033.02 810.543 1025.24C802.937 1035.64 792.682 1037.84 789.185 1045.38C785.687 1052.92 779.507 1060.89 778.998 1065.18C778.489 1069.48 774.142 1075.03 770.101 1083.34C766.061 1091.65 766.264 1086.59 754.821 1103.8V1103.91ZM882.462 1013.75C874.747 1022.8 867.686 1033.22 861.409 1044.83C851.222 1063.64 856.248 1060.78 855.06 1077.23C853.871 1093.68 855.06 1077.23 839.134 1091.65C823.209 1106.06 839.134 1099.18 832.852 1119.43C826.57 1139.67 823.718 1138.63 827.487 1113.93C831.256 1089.23 829.117 1105.67 812.173 1121.79C795.229 1137.91 815.84 1140.33 811.698 1155.63C807.555 1170.92 797.776 1167.02 777.096 1191.99C756.417 1216.97 788.268 1145.28 788.268 1145.28C788.268 1145.28 793.565 1118.11 804.567 1103.47C811.823 1095.9 819.668 1089.93 827.895 1085.7C838.081 1081.47 831.698 1061.06 834.686 1054.29C837.674 1047.53 853.531 1037.79 862.564 1024.58C871.596 1011.38 871.732 1002.58 885.722 983.489C899.712 964.399 893.701 977.988 897.776 982.829C901.851 987.67 882.462 1013.64 882.462 1013.64V1013.75ZM916.18 910.376C901.579 929.191 903.549 939.643 898.693 946.3C893.837 952.957 887.352 954.332 885.111 959.118C882.869 963.904 878.931 969.021 878.523 971.716C878.116 974.412 875.433 977.988 872.852 983.324C870.272 988.66 870.475 985.47 863.175 996.417C855.874 1007.37 850.136 1019.8 845.28 1023.32C840.424 1026.84 833.328 1029.48 832.139 1033.61C829.747 1040.07 826.499 1045.59 822.631 1049.78C822.631 1049.78 831.426 1028.33 832.818 1026.35C834.21 1024.36 837.334 1026.34 845.45 1019.3C853.565 1012.26 858.048 1000.38 862.428 992.181C866.808 983.984 873.464 972.211 873.464 972.211C873.464 972.211 890.034 953.012 893.837 946.575C897.64 940.138 903.549 917.143 908.065 908.395C912.581 899.648 916.18 910.266 916.18 910.266V910.376Z" fill="#573F00" fill-opacity="0.24"/>
<path fill-rule="evenodd" clip-rule="evenodd" d="M1019.34 995.372C1023.04 1001.11 1025.81 1008.23 1027.42 1016.11C1027.42 1016.11 1043.18 1051.6 1032.92 1039.22C1022.67 1026.84 1017.85 1028.82 1015.77 1021.23C1013.7 1013.64 1023.96 1012.43 1015.54 1004.45C1007.12 996.472 1006.1 988.275 1007.96 1000.54C1009.83 1012.81 1008.37 1013.36 1005.32 1003.29C1002.26 993.226 1010.1 996.692 1002.19 989.541C994.28 982.389 994.926 990.586 994.314 982.444C993.703 974.302 996.148 975.677 991.157 966.325C988.044 960.581 984.548 955.415 980.732 950.921C980.732 950.921 971.055 937.883 973.092 935.792C975.129 933.701 972.107 926.55 979.068 936.122C986.029 945.694 986.063 949.986 990.511 956.477C994.96 962.969 1002.8 967.865 1004.37 971.221C1005.93 974.577 1002.63 984.644 1007.76 986.79C1011.83 988.827 1015.73 991.711 1019.34 995.372Z" fill="black" fill-opacity="0.12"/>
<path fill-rule="evenodd" clip-rule="evenodd" d="M1063.38 1059.96C1063.38 1059.96 1051.63 1043.45 1057.34 1061.94C1063.04 1080.42 1076.79 1100.12 1067.01 1095.88C1057.23 1091.65 1061.38 1092.2 1054.01 1087.3C1046.64 1082.4 1055.71 1085.43 1041.89 1077.07C1028.07 1068.71 1023.41 1057.87 1023.86 1068.32C1024.3 1078.77 1018.66 1057.32 1030.95 1083.94C1043.25 1110.57 1030.95 1098.58 1049.59 1126.75C1068.24 1154.91 1068.17 1154.25 1072.18 1158.21C1076.18 1162.17 1076.59 1151.17 1072.72 1142.04C1068.85 1132.91 1072.04 1123.83 1080.49 1136.1C1088.95 1148.37 1094.48 1165.25 1092.72 1155.24C1090.95 1145.23 1074.59 1120.09 1085.93 1133.24C1097.27 1146.39 1103.28 1152.05 1104.03 1156.34C1104.77 1160.63 1114.21 1177.08 1108.2 1159.15C1102.19 1141.21 1103.52 1141.27 1109.32 1145.06C1115.13 1148.86 1121.75 1161.57 1116.42 1146.06C1111.09 1130.54 1117.68 1131.26 1113.74 1122.67C1109.8 1114.09 1112.11 1109.69 1106.3 1105.84C1100.5 1101.99 1100.16 1108.48 1098.19 1106.45C1095.18 1101.55 1092 1096.96 1088.64 1092.69C1083.48 1087.19 1085.42 1094.29 1078.22 1081.3C1073.8 1073.28 1068.82 1066.11 1063.38 1059.96Z" fill="black" fill-opacity="0.12"/>
<path fill-rule="evenodd" clip-rule="evenodd" d="M957.167 891.78C964.044 901.846 970.552 912.556 976.657 923.853C980.415 929.681 984.508 934.913 988.882 939.477C993.058 944.979 990.715 948.609 996.793 951.8C1001.94 954.406 1006.57 959.17 1010.21 965.609C1012.88 970.035 1015.92 973.832 1019.24 976.887C1022.36 980.508 1025.14 984.844 1027.49 989.76L1033.94 997.627C1031.85 990.433 1028.97 983.91 1025.45 978.372C1021.21 973.421 1017.23 965.114 1012.92 961.428C1008.61 957.742 1005.76 953.836 1000.77 949.985C995.775 946.134 998.05 948.719 993.975 942.063C989.9 935.406 984.739 928.639 983.788 927.154C982.837 925.669 983.177 920.717 981.479 919.562C979.781 918.407 970.443 896.071 970.443 896.071L957.167 891.78Z" fill="black" fill-opacity="0.12"/>
<path fill-rule="evenodd" clip-rule="evenodd" d="M1013.53 952.296C1018.33 957.415 1022.21 964.493 1024.77 972.816C1028.17 983.049 1039.75 999.938 1044.71 1009.24C1049.66 1018.53 1052.58 1028 1051.94 1021.5C1050.63 1013.64 1047.94 1006.57 1044.2 1001.15C1041.89 999.058 1039.99 990.641 1034.86 983.434C1029.73 976.227 1029.32 973.697 1029.09 970.671C1029.48 968.026 1029.34 965.247 1028.68 962.742C1028.03 960.236 1026.9 958.137 1025.45 956.752C1021.46 951.451 1017.75 945.598 1014.38 939.258L1013.53 952.296Z" fill="black" fill-opacity="0.12"/>
<path d="M618.828 951.581C619.037 949.764 619.162 947.925 619.202 946.079C619.27 942.668 618.251 943.328 618.828 951.581Z" fill="black" fill-opacity="0.12"/>
<path d="M655.262 1183.79C652.376 1178.29 650.271 1178.29 650.984 1172.13C651.697 1165.97 648.165 1163 644.77 1153.26C641.374 1143.52 647.249 1143.47 650.271 1134.17C653.293 1124.87 646.094 1119.1 637.707 1114.42C629.32 1109.75 636.383 1099.95 641.103 1095.94C645.823 1091.92 643.853 1088.07 640.831 1074.7C637.809 1061.33 639.133 1061.99 641.612 1052.7C644.091 1043.4 636.654 1038.45 631.425 1041.03C626.196 1043.62 627.35 1026.57 629.965 1014.46C632.58 1002.36 626.569 998.563 621.85 971.826C620.629 965.218 619.721 958.468 619.133 951.636C618.43 957.708 617.408 963.671 616.077 969.461C613.598 981.344 614.379 987.285 615.025 999.223C615.67 1011.16 609.524 1019.14 608.233 1024.03C606.943 1028.93 611.255 1028.49 614.243 1032.51C617.232 1036.52 612.308 1037.4 606.671 1040.59C601.035 1043.78 604.94 1046.76 606.909 1054.4C608.878 1062.05 603.921 1057.37 594.719 1060.95C585.517 1064.52 603.106 1075.42 604.905 1084.71C606.705 1094.01 597.673 1079.87 590.882 1087.52C584.09 1095.17 601.068 1103.64 606.841 1112.55C612.614 1121.46 602.529 1117.45 596.111 1117.01C589.693 1116.57 596.111 1120.86 600.967 1127.19C605.822 1133.51 597.163 1130.38 591.119 1128.89C585.075 1127.41 594.515 1135.05 597.673 1143.96C600.831 1152.88 594.277 1160.74 586.433 1161.18C578.589 1161.62 584.056 1154.36 587.724 1145.45C591.391 1136.54 588.641 1139.95 586.569 1133.13C584.498 1126.31 589.557 1124.65 589.048 1117.01C588.539 1109.36 578.861 1111.51 577.367 1106.01C575.873 1100.5 583.411 1099.24 584.973 1094.29C586.535 1089.34 580.253 1093.08 578.42 1090.11C576.586 1087.14 578.827 1083.94 584.838 1074.15C590.848 1064.36 585.517 1061.22 580.525 1059.96C575.533 1058.69 580.016 1054.46 579.744 1048.96C579.472 1043.45 575.805 1039.44 572.783 1037.07C569.761 1034.71 572.138 1028.82 574.243 1019.03C576.349 1009.24 569.659 1011.38 569.659 1004.83C569.659 998.288 569.116 995.262 565.449 984.039C561.781 972.817 564.26 956.863 563.887 951.306C563.513 945.75 563.106 960.053 562.189 967.48C561.196 974.911 560.448 982.422 559.948 989.981C559.438 998.673 553.802 1009.51 548.946 1020.13C544.09 1030.75 551.696 1026.45 555.364 1030.31C559.031 1034.16 556.009 1035.37 553.394 1037.07C551.633 1038.2 550.144 1040.21 549.147 1042.82C548.149 1045.43 547.698 1048.49 547.859 1051.54C548.199 1059.57 543.445 1058.97 536.11 1057.87C528.776 1056.77 534.413 1063.64 538.861 1069.37C543.309 1075.09 547.112 1078.28 547.791 1082.73C548.47 1087.19 544.905 1089.72 539.914 1087.41C534.922 1085.1 535.601 1082.51 531.119 1085.04C526.637 1087.58 528.504 1092.47 533.496 1094.34C538.487 1096.21 545.822 1096.71 546.739 1102.48C547.656 1108.26 533.156 1107.99 531.323 1108.48C529.489 1108.98 539.981 1120.31 542.053 1125.37C544.124 1130.43 539.574 1125.04 534.073 1123.17C528.572 1121.3 539.37 1128.67 541.544 1135.27C543.717 1141.87 538.793 1134.28 532.511 1135.27C526.229 1136.26 533.496 1138.13 537.027 1142.86C539.322 1147.07 540.537 1152.54 540.423 1158.16L551.628 1173.45C551.628 1173.45 581.646 1200.96 587.792 1213.06C593.938 1225.16 608.505 1230.45 617.809 1236.39C627.113 1242.33 624.227 1242.33 624.091 1224.72C623.955 1207.12 624.872 1201.18 626.196 1196.5C627.52 1191.83 633.395 1194.58 640.729 1204.53C648.064 1214.49 653.972 1207.29 657.232 1200.96C660.492 1194.63 658.081 1189.35 655.262 1183.79ZM552.274 1077.45C548.267 1081.63 549.116 1071.95 548.878 1069.75C548.64 1067.55 551.73 1066.89 552.274 1066.56C553.937 1065.18 556.246 1073.33 552.24 1077.45H552.274ZM553.836 1056.55C546.841 1060.51 549.116 1052.97 548.946 1050.39C548.776 1047.8 551.289 1048.52 553.598 1049.12C555.907 1049.73 557.774 1045.21 557.774 1045.21C559.438 1042.46 560.797 1046.48 561.442 1049.78C562.087 1053.08 560.831 1052.64 553.802 1056.82L553.836 1056.55ZM618.352 1222.85C617.945 1234.35 616.485 1234.19 613.53 1230.67C610.576 1227.15 602.121 1221.42 595.432 1214.6C588.742 1207.78 584.226 1201.67 589.252 1203.6C594.277 1205.52 596.518 1201.67 594.956 1196.45C593.394 1191.22 603.208 1187.98 609.49 1188.14C615.772 1188.31 616.654 1193.64 618.352 1199.14C618.386 1199.31 618.76 1211.41 618.386 1222.85H618.352ZM612.002 1055.06C605.992 1055.06 608.607 1048.52 610.576 1045.32C612.546 1042.13 618.624 1047.86 618.624 1047.86C618.624 1047.86 620.254 1050.83 620.186 1052.75C620.118 1054.68 618.081 1055.17 612.036 1055.06H612.002Z" fill="#337500" fill-opacity="0.32"/>
<path d="M1210.1 955.102C1210.28 953.522 1210.39 951.922 1210.41 950.316C1210.51 947.07 1209.56 947.62 1210.1 955.102Z" fill="black" fill-opacity="0.12"/>
<path d="M1242.97 1164.92C1240.36 1159.92 1238.49 1159.75 1239.1 1154.36C1239.71 1148.97 1236.59 1146.11 1233.5 1137.31C1230.41 1128.5 1235.78 1128.45 1238.49 1120.03C1241.21 1111.62 1234.69 1106.44 1227.12 1102.21C1219.54 1097.97 1225.93 1089.17 1230.07 1085.7C1234.21 1082.24 1232.55 1078.61 1229.83 1066.5C1227.12 1054.4 1228.31 1055.01 1230.55 1046.59C1232.79 1038.17 1226.06 1033.72 1221.21 1036.03C1216.35 1038.34 1217.54 1022.99 1219.88 1012.04C1222.23 1001.09 1216.83 997.682 1212.55 973.531C1211.45 967.569 1210.64 961.482 1210.11 955.321C1209.47 960.811 1208.55 966.203 1207.35 971.44C1205.11 982.168 1205.83 987.559 1206.4 998.287C1206.98 1009.01 1201.45 1016.33 1200.12 1020.73C1198.8 1025.13 1202.84 1024.75 1205.59 1028.38C1208.34 1032.01 1203.79 1032.84 1198.8 1035.7C1193.81 1038.56 1197.27 1041.2 1199.04 1048.13C1200.8 1055.06 1196.32 1050.83 1188.03 1054.07C1179.75 1057.32 1195.61 1067.16 1197.17 1075.58C1198.73 1084 1190.65 1071.18 1184.5 1078.06C1178.36 1084.93 1193.7 1092.64 1198.93 1100.72C1204.16 1108.81 1195.03 1105.12 1189.22 1104.74C1183.42 1104.35 1189.22 1108.2 1193.6 1113.93C1197.98 1119.65 1190.21 1116.79 1184.74 1115.47C1179.27 1114.15 1187.93 1120.97 1190.65 1129.11C1193.36 1137.25 1187.46 1144.24 1180.46 1144.62C1173.47 1145.01 1178.32 1138.46 1181.65 1130.43C1184.98 1122.4 1182.47 1125.26 1180.6 1119.43C1178.73 1113.6 1183.31 1111.73 1182.84 1104.85C1182.36 1097.97 1173.7 1100.06 1172.28 1095.06C1170.85 1090.05 1177.75 1088.89 1179.07 1084.44C1180.39 1079.98 1174.79 1083.34 1173.13 1080.64C1171.46 1077.95 1173.5 1075.14 1178.93 1066.28C1184.37 1057.43 1179.54 1054.57 1175.03 1053.41C1170.51 1052.26 1174.55 1048.24 1174.32 1043.45C1174.08 1038.67 1170.92 1034.82 1168.03 1032.73C1165.15 1030.64 1167.46 1025.24 1169.36 1016.22C1171.26 1007.2 1165.22 1009.29 1165.22 1003.35C1165.22 997.407 1164.74 994.711 1161.41 984.589C1158.08 974.466 1160.36 959.998 1159.99 955.046C1159.61 950.095 1159.31 962.913 1158.46 969.625C1157.57 976.33 1156.9 983.106 1156.45 989.925C1155.98 997.792 1150.89 1007.58 1146.51 1017.43C1142.13 1027.28 1148.98 1022.93 1152.31 1026.62C1155.64 1030.31 1152.89 1031.24 1150.55 1032.78C1148.95 1033.78 1147.6 1035.59 1146.69 1037.94C1145.79 1040.29 1145.38 1043.06 1145.52 1045.82C1145.83 1053.14 1141.55 1052.53 1134.89 1051.6C1128.24 1050.66 1133.36 1056.77 1137.41 1061.94C1141.45 1067.11 1144.84 1069.97 1145.45 1074.04C1146.06 1078.11 1142.84 1080.37 1138.36 1078.22C1133.87 1076.08 1134.45 1073.82 1130.41 1076.13C1126.37 1078.44 1128.03 1082.84 1132.55 1084.49C1137.07 1086.14 1143.65 1086.69 1144.5 1091.87C1145.35 1097.04 1132.35 1096.76 1130.58 1097.37C1128.81 1097.97 1138.39 1108.04 1140.29 1112.61C1142.19 1117.17 1138.05 1112.33 1133.06 1110.63C1128.07 1108.92 1137.88 1115.47 1139.85 1121.63C1141.82 1127.79 1137.37 1120.8 1131.7 1121.63C1126.03 1122.45 1132.58 1124.21 1135.78 1128.56C1137.84 1132.36 1138.92 1137.31 1138.8 1142.37L1148.98 1156.18C1148.98 1156.18 1176.15 1180.99 1181.65 1191.94C1187.15 1202.88 1200.36 1207.67 1208.81 1213.01C1217.27 1218.34 1214.62 1218.51 1214.49 1202.5C1214.35 1186.49 1215.2 1181.21 1216.39 1176.97C1217.58 1172.74 1222.91 1175.27 1229.53 1184.23C1236.15 1193.2 1241.48 1186.76 1244.47 1180.99C1247.46 1175.21 1245.59 1169.93 1242.97 1164.92ZM1149.94 1068.81C1146.34 1072.56 1147.12 1063.92 1146.98 1061.83C1146.85 1059.74 1149.56 1059.24 1149.94 1058.97C1151.46 1057.7 1153.53 1065.07 1149.94 1068.81ZM1151.36 1049.95C1145.05 1053.47 1147.12 1046.7 1146.91 1044.44C1146.71 1042.19 1149.05 1042.74 1151.12 1043.29C1153.19 1043.84 1154.93 1039.77 1154.93 1039.77C1156.39 1037.29 1157.64 1040.87 1158.32 1043.84C1159 1046.81 1157.81 1046.37 1151.36 1049.95ZM1209.7 1200.19C1209.32 1210.53 1208 1210.42 1205.35 1207.23C1202.7 1204.04 1195.16 1198.92 1189.02 1192.71C1182.87 1186.49 1178.83 1181.1 1183.42 1182.97C1188 1184.84 1189.97 1181.21 1188.54 1176.48C1187.12 1171.75 1196.01 1168.83 1201.68 1169C1207.35 1169.16 1208.17 1173.89 1209.7 1178.9C1209.7 1178.9 1210.04 1189.85 1209.7 1200.19ZM1203.99 1048.62C1198.53 1048.62 1200.9 1042.68 1202.67 1039.77C1204.43 1036.85 1209.97 1042.08 1209.97 1042.08C1209.97 1042.08 1211.43 1044.77 1211.36 1046.48C1211.29 1048.18 1209.43 1048.68 1203.99 1048.62Z" fill="#337500" fill-opacity="0.32"/>
<path d="M162.9 1278.88C162.9 1278.88 216.313 1287.51 245.311 1256.87C274.31 1226.23 299.98 1215.34 319.301 1204.39C338.622 1193.44 380.422 1158.18 335.77 1176.17C291.118 1194.16 263.749 1227.05 230.812 1248.23C197.874 1269.42 197.433 1274.09 188.265 1268.59C179.097 1263.09 175.022 1248.45 170.574 1242.02C166.126 1235.58 168.061 1218.42 165.107 1225.51C162.153 1232.61 162.9 1278.88 162.9 1278.88Z" fill="black" fill-opacity="0.12"/>
<path d="M389.487 1189.35C404.02 1236.5 450.88 1192.43 476.041 1208.17C501.202 1223.9 562.595 1242.61 566.975 1229.29C571.356 1215.98 573.257 1197.83 532.136 1176.37C508.175 1164.33 485.007 1148.48 462.968 1129.06C461.542 1127.46 453.324 1161.13 418.01 1163.5C382.696 1165.86 353.154 1155.69 343.035 1154.92C332.916 1154.14 384.631 1173.84 389.487 1189.35Z" fill="black" fill-opacity="0.12"/>
<rect x="445.5" y="402.5" width="576.422" height="576.422" rx="288.211" stroke="#3A3A3C" stroke-width="53"/>
<path d="M846.663 864.014C854.185 871.536 733.347 597.636 733.832 608.263V803.837C733.832 803.837 839.141 856.492 846.663 864.014Z" fill="#FF453A"/>
<path d="M733.832 608.263C733.347 597.636 854.185 871.536 846.663 864.014C839.141 856.492 733.832 803.837 733.832 803.837M733.832 608.263C733.832 684.639 733.832 803.837 733.832 803.837M733.832 608.263C728.276 613.334 621 856.492 621 864.014C621 871.536 733.832 803.837 733.832 803.837M733.832 608.263V803.837" stroke="#FF453A" stroke-width="19" stroke-linecap="round"/>
<path d="M702.938 565.187C697.25 565.187 693.875 561.75 693.875 555.75V482C693.875 476 697.375 472.562 703.375 472.562C707.25 472.562 709.875 474.125 712.75 478.062L751.75 532.562H752.25V482.062C752.25 476 755.625 472.562 761.313 472.562C767 472.562 770.313 476 770.313 482.062V556C770.313 561.875 767 565.187 761.063 565.187C757 565.187 754.5 563.75 751.625 559.75L712.5 504.937H711.938V555.75C711.938 561.75 708.563 565.187 702.938 565.187Z" fill="#242426"/>
<path d="M432.87 507.752C448.075 478 474.609 448.13 503.121 423.871C531.659 399.591 561.846 381.213 584.155 374.184C587.149 373.241 589.952 371.763 591.093 369.146C592.367 366.222 590.991 363.442 589.342 361.448C587.633 359.381 584.982 357.305 581.762 355.24C578.498 353.146 574.464 350.947 569.826 348.676C551.315 339.611 522.381 329.01 491.971 319.083C461.523 309.142 429.446 299.829 404.567 293.35C392.134 290.111 381.461 287.572 373.673 286.015C369.789 285.239 366.559 284.695 364.161 284.437C362.973 284.309 361.897 284.241 361.01 284.271C360.569 284.285 360.085 284.326 359.616 284.43C359.217 284.518 358.461 284.726 357.792 285.315C357.11 285.917 356.813 286.659 356.679 287.048C356.522 287.507 356.426 287.987 356.362 288.427C356.233 289.312 356.181 290.399 356.178 291.605C356.171 294.04 356.361 297.345 356.717 301.329C357.43 309.319 358.831 320.301 360.78 333.083C364.681 358.653 370.801 391.577 378.093 422.443C385.366 453.23 393.864 482.242 402.579 499.82C404.767 504.232 407.014 508.021 409.32 510.968C411.592 513.874 414.11 516.208 416.912 517.348C419.916 518.57 423.02 518.319 425.877 516.471C428.55 514.741 430.837 511.73 432.87 507.752Z" fill="#64D2FF" stroke="#64D2FF" stroke-width="6" stroke-linecap="round"/>
</g>
<rect x="220.5" y="164.5" width="1027" height="1027" rx="201.5" stroke="#BDBDBD" stroke-opacity="0.6" stroke-width="3"/>
<path d="M1739.19 521.924C1739.19 516.68 1739.64 510.524 1740.55 503.456C1741.47 496.388 1743.18 488.408 1745.68 479.516C1748.19 470.396 1751.95 460.25 1756.97 449.078L1799.04 463.784C1796.53 470.852 1794.36 477.35 1792.54 483.278C1790.71 488.978 1789.35 494.336 1788.43 499.352C1787.52 504.14 1787.07 508.928 1787.07 513.716C1787.07 525.344 1789.57 534.92 1794.59 542.444C1799.83 549.968 1807.13 555.554 1816.48 559.202C1825.83 562.85 1836.66 564.674 1848.97 564.674C1865.38 564.674 1878.38 561.938 1887.96 556.466C1897.53 550.994 1904.49 543.356 1908.82 533.552C1913.15 523.976 1915.77 512.804 1916.68 500.036C1917.82 487.04 1918.17 473.246 1917.71 458.654L1911.21 281.156H1959.43L1965.25 455.576C1965.7 470.396 1965.13 485.216 1963.54 500.036C1962.17 514.856 1959.09 528.878 1954.3 542.102C1949.74 555.326 1943.02 567.068 1934.13 577.328C1925.23 587.588 1913.72 595.682 1899.58 601.61C1885.68 607.538 1868.46 610.502 1847.94 610.502C1833.12 610.502 1819.1 608.792 1805.88 605.372C1792.88 601.952 1781.37 596.594 1771.33 589.298C1761.3 582.23 1753.44 573.11 1747.74 561.938C1742.04 550.766 1739.19 537.428 1739.19 521.924ZM2092.2 533.21C2071 533.21 2054.58 531.044 2042.96 526.712C2031.56 522.38 2023.58 515.654 2019.02 506.534C2014.46 497.186 2011.83 485.444 2011.15 471.308L2003.97 281.156H2051.85L2059.03 448.394C2059.49 458.882 2060.63 466.748 2062.45 471.992C2064.27 477.236 2067.69 480.77 2072.71 482.594C2077.95 484.418 2085.59 485.33 2095.62 485.33C2104.29 485.33 2110.44 487.61 2114.09 492.17C2117.97 496.502 2119.91 501.974 2119.91 508.586C2119.91 515.654 2117.51 521.582 2112.72 526.37C2107.94 530.93 2101.1 533.21 2092.2 533.21ZM2104.01 262.72V238.78L2184.72 214.84V239.464L2104.01 262.72ZM2123.44 337.378C2115 337.378 2109.3 334.414 2106.34 328.486C2103.38 322.558 2101.89 316.06 2101.89 308.992C2101.89 306.484 2102.01 303.862 2102.24 301.126C2102.69 298.162 2103.26 294.856 2103.95 291.208L2124.47 286.42C2123.78 290.296 2123.21 293.944 2122.76 297.364C2122.53 300.556 2122.41 303.406 2122.41 305.914C2122.41 308.878 2122.98 311.158 2124.12 312.754C2125.26 314.35 2126.86 315.148 2128.91 315.148C2131.65 315.148 2133.81 313.552 2135.41 310.36C2137.23 307.168 2138.15 301.012 2138.15 291.892V281.632L2157.98 275.476V296.338C2157.98 298.846 2158.44 300.898 2159.35 302.494C2160.49 304.09 2162.2 304.888 2164.48 304.888C2167.67 304.888 2169.84 303.976 2170.98 302.152C2172.35 300.1 2173.03 297.706 2173.03 294.97C2173.03 291.094 2172.57 287.218 2171.66 283.342C2170.75 279.238 2169.5 275.248 2167.9 271.372L2186.71 266.584C2188.99 270.916 2190.81 275.932 2192.18 281.632C2193.78 287.104 2194.58 292.12 2194.58 296.68C2194.58 304.204 2192.41 311.044 2188.08 317.2C2183.75 323.128 2176.68 326.092 2166.87 326.092C2160.72 326.092 2155.47 324.268 2151.14 320.62C2146.81 316.744 2144.64 312.184 2144.64 306.94L2152.51 310.018C2152.51 317.77 2149.77 324.268 2144.3 329.512C2139.06 334.756 2132.1 337.378 2123.44 337.378ZM2092.67 533.21L2096.09 485.33C2108.4 485.33 2120.6 484.646 2132.68 483.278C2144.77 481.91 2156.51 479.858 2167.91 477.122C2179.31 474.386 2190.14 470.852 2200.4 466.52C2210.89 462.188 2220.69 456.944 2229.81 450.788C2222.97 446.684 2215.56 443.15 2207.58 440.186C2199.6 437.222 2191.05 435.056 2181.93 433.688C2173.04 432.092 2163.58 431.294 2153.54 431.294C2149.9 431.294 2146.02 431.408 2141.92 431.636C2138.04 431.864 2134.05 432.32 2129.95 433.004C2125.84 433.46 2121.74 434.144 2117.63 435.056L2110.79 388.202C2117.41 386.378 2124.36 385.124 2131.66 384.44C2139.18 383.528 2145.79 383.072 2151.49 383.072C2163.8 383.072 2175.09 384.44 2185.35 387.176C2195.84 389.912 2205.41 393.332 2214.08 397.436C2222.97 401.54 2231.18 405.644 2238.7 409.748C2246.45 413.852 2253.75 417.272 2260.59 420.008C2267.66 422.744 2274.5 424.112 2281.11 424.112H2293.76L2299.24 469.598C2289.43 470.054 2280.2 471.992 2271.53 475.412C2263.1 478.604 2254.66 482.708 2246.23 487.724C2238.02 492.512 2229.13 497.528 2219.55 502.772C2210.2 508.016 2199.6 512.918 2187.74 517.478C2175.89 522.038 2162.21 525.8 2146.7 528.764C2131.2 531.728 2113.19 533.21 2092.67 533.21ZM2299.53 610.16L2282.09 566.384C2301.7 559.544 2317.54 552.02 2329.63 543.812C2341.94 535.604 2350.95 526.826 2356.65 517.478C2362.57 508.13 2365.54 498.44 2365.54 488.408C2365.54 482.024 2364.63 475.412 2362.8 468.572C2360.98 461.504 2358.36 454.094 2354.94 446.342C2351.74 438.59 2347.87 430.496 2343.31 422.06L2388.11 400.514C2396.09 415.79 2402.25 430.382 2406.58 444.29C2411.14 458.198 2413.42 471.194 2413.42 483.278C2413.42 494.45 2411.94 505.166 2408.97 515.426C2406.24 525.686 2401.9 535.262 2395.98 544.154C2390.28 553.274 2382.87 561.824 2373.75 569.804C2364.63 577.784 2353.91 585.08 2341.6 591.692C2329.29 598.532 2315.26 604.688 2299.53 610.16Z" fill="black"/>
<path d="M1524.41 1068.5H1574.84V980.328H1616.09L1661.01 1068.5H1718.12L1667.36 972.813C1694.91 961.959 1710.94 935.407 1710.94 904.514V904.18C1710.94 856.754 1679.55 827.53 1624.78 827.53H1524.41V1068.5ZM1574.84 943.59V866.94H1618.6C1643.81 866.94 1659.34 881.97 1659.34 905.182V905.516C1659.34 929.229 1644.48 943.59 1619.26 943.59H1574.84ZM1806.13 1071.34C1830.18 1071.34 1849.55 1061.15 1858.9 1044.12H1861.9V1068.5H1910V942.922C1910 903.679 1882.44 880.634 1833.68 880.634C1787.43 880.634 1757.03 902.009 1753.19 934.238L1753.03 935.741H1798.11L1798.45 935.073C1802.29 924.219 1813.48 918.04 1831.01 918.04C1851.05 918.04 1861.9 927.058 1861.9 942.922V958.118L1817.48 960.79C1771.73 963.462 1746.18 982.833 1746.18 1015.9V1016.23C1746.18 1049.63 1771.06 1071.34 1806.13 1071.34ZM1793.77 1013.23V1012.89C1793.77 999.532 1803.96 991.684 1824.83 990.348L1861.9 988.01V1001.54C1861.9 1020.91 1845.04 1035.77 1822.49 1035.77C1805.63 1035.77 1793.77 1027.25 1793.77 1013.23ZM1959.43 1068.5H2008.19V962.126C2008.19 937.244 2021.88 921.046 2044.43 921.046C2067.47 921.046 2078.16 934.739 2078.16 960.623V1068.5H2126.92V949.602C2126.92 905.683 2104.88 880.634 2063.96 880.634C2037.75 880.634 2019.54 893.158 2011.2 913.03H2008.19V814.338H1959.43V1068.5ZM2175.85 1068.5H2224.61V962.126C2224.61 937.244 2238.3 921.046 2260.85 921.046C2283.89 921.046 2294.58 934.739 2294.58 960.623V1068.5H2343.34V949.602C2343.34 905.683 2321.3 880.634 2280.39 880.634C2254.17 880.634 2235.97 893.158 2227.62 913.03H2224.61V814.338H2175.85V1068.5ZM2440.7 1071.34C2464.75 1071.34 2484.12 1061.15 2493.47 1044.12H2496.47V1068.5H2544.57V942.922C2544.57 903.679 2517.01 880.634 2468.25 880.634C2422 880.634 2391.6 902.009 2387.76 934.238L2387.6 935.741H2432.68L2433.02 935.073C2436.86 924.219 2448.05 918.04 2465.58 918.04C2485.62 918.04 2496.47 927.058 2496.47 942.922V958.118L2452.05 960.79C2406.3 963.462 2380.75 982.833 2380.75 1015.9V1016.23C2380.75 1049.63 2405.63 1071.34 2440.7 1071.34ZM2428.34 1013.23V1012.89C2428.34 999.532 2438.53 991.684 2459.4 990.348L2496.47 988.01V1001.54C2496.47 1020.91 2479.61 1035.77 2457.06 1035.77C2440.2 1035.77 2428.34 1027.25 2428.34 1013.23ZM2594 1068.5H2642.76V814.338H2594V1068.5Z" fill="black"/>
<defs>
<clipPath id="clip0_406_3">
<rect x="222" y="166" width="1024" height="1024" rx="200" fill="white"/>
</clipPath>
</defs>
</svg>
