<svg width="1024" height="1024" viewBox="0 0 1024 1024" fill="none" xmlns="http://www.w3.org/2000/svg">
<g filter="url(#filter0_i_1546_1177)">
<g clip-path="url(#clip0_1546_1177)">
<rect width="1024" height="1024" rx="200" fill="white"/>
<path d="M911.839 743.165C911.952 742.111 912.02 741.045 912.043 739.975C912.043 737.774 911.5 738.159 911.839 743.165Z" fill="black" fill-opacity="0.12"/>
<path d="M933.671 882.404C931.939 879.104 930.683 878.994 931.09 875.418C931.498 871.842 929.427 869.916 927.355 864.085C925.284 858.253 928.849 858.253 930.751 852.642C932.653 847.031 928.238 843.62 923.213 840.759C918.187 837.898 922.398 832.122 925.148 829.756C927.899 827.391 926.812 825.08 925.148 817.048C923.484 809.016 924.13 809.401 925.624 803.79C927.118 798.178 922.635 795.263 919.41 796.803C916.184 798.343 916.965 788.111 918.527 780.904C920.089 773.697 916.489 771.332 913.671 755.267C912.934 751.327 912.389 747.298 912.041 743.219C911.627 746.858 911.013 750.43 910.208 753.892C909.066 759.65 908.844 765.782 909.562 771.717C909.97 778.813 906.167 783.71 905.42 786.625C904.673 789.541 907.219 789.266 909.019 791.687C910.819 794.107 907.865 794.657 904.469 796.528C901.073 798.398 903.45 800.214 904.469 804.835C905.488 809.456 902.669 806.595 897.168 808.741C891.668 810.886 902.194 817.433 903.213 823.044C904.231 828.656 898.9 820.074 894.791 824.695C890.683 829.316 900.938 834.377 904.401 839.714C907.865 845.05 901.786 842.629 897.949 842.354C894.112 842.079 897.949 844.665 900.836 848.461C903.722 852.257 898.561 850.386 894.961 849.506C891.362 848.626 897.067 853.192 898.9 858.528C900.734 863.865 896.761 868.596 892.109 868.871C887.457 869.146 890.717 864.8 892.924 859.409C895.131 854.017 893.467 855.998 892.211 852.037C890.954 848.076 894.01 846.976 893.705 842.354C893.399 837.733 887.661 839.164 886.71 835.863C885.759 832.562 890.309 831.792 891.26 828.821C892.211 825.85 888.442 828.106 887.321 826.345C886.201 824.585 887.559 822.659 891.192 816.773C894.825 810.886 891.566 809.016 888.578 808.246C885.589 807.476 888.272 804.835 888.102 801.644C887.932 798.453 885.759 796.143 883.959 794.492C882.16 792.842 883.552 789.541 884.808 783.49C886.065 777.438 882.058 778.868 882.058 774.962C882.025 770.482 881.148 766.125 879.545 762.474C877.338 755.708 878.832 745.97 878.595 742.834C878.357 739.699 878.153 748.336 877.576 752.517C876.982 756.985 876.54 761.503 876.252 766.05C875.946 771.222 872.55 777.713 869.664 784.095C866.778 790.476 871.294 787.891 873.501 790.201C875.708 792.512 873.908 793.282 872.313 794.272C871.243 794.932 870.334 796.136 869.722 797.703C869.11 799.27 868.827 801.116 868.917 802.964C869.121 807.806 866.268 807.421 861.888 806.76C857.508 806.1 860.869 810.171 863.552 813.637C866.234 817.103 868.475 819.138 868.883 821.669C869.29 824.2 867.151 825.85 864.163 824.475C861.175 823.1 861.582 821.559 858.9 823.044C856.217 824.53 857.338 827.501 860.326 828.546C863.314 829.591 867.694 829.976 868.238 833.442C868.781 836.908 860.19 836.688 859.002 837.073C857.813 837.458 864.197 844.115 865.454 847.196C866.71 850.276 863.959 847.196 860.666 845.875C857.372 844.555 863.858 849.121 865.148 853.137C866.438 857.153 863.484 852.532 859.715 853.137C855.946 853.742 860.326 854.842 862.431 857.703C863.81 860.228 864.528 863.523 864.435 866.89L871.226 876.023C871.226 876.023 889.223 892.527 892.924 899.789C896.625 907.051 905.318 910.186 910.921 913.762C916.523 917.338 914.758 917.338 914.69 906.776C914.297 901.046 914.727 895.247 915.946 889.831C916.727 887.026 920.258 888.676 924.673 894.673C925.365 895.744 926.197 896.55 927.107 897.03C928.017 897.51 928.983 897.653 929.932 897.447C930.881 897.241 931.789 896.692 932.589 895.84C933.389 894.988 934.061 893.856 934.554 892.527C936.49 888.896 935.403 885.705 933.671 882.404ZM871.905 818.643C869.494 821.119 870.003 815.398 869.936 813.967C869.868 812.537 871.667 812.262 871.905 812.097C872.924 811.272 874.282 816.168 871.905 818.643V818.643ZM872.822 806.1C868.645 808.466 870.004 803.955 869.902 802.414C869.8 800.874 871.294 801.259 872.686 801.644C874.078 802.029 875.199 799.279 875.199 799.279C876.184 797.628 876.998 800.049 877.406 802.029C877.813 804.01 877.033 803.735 872.822 806.1V806.1ZM911.566 905.84C911.328 912.717 910.445 912.607 908.68 910.516C906.914 908.426 901.888 905.015 897.814 900.889C893.739 896.763 891.022 893.132 894.112 894.397C897.202 895.663 898.459 893.242 897.508 890.106C896.557 886.971 902.465 885.045 906.235 885.155C910.004 885.265 910.513 888.346 911.532 891.702C911.566 891.702 911.803 898.964 911.566 905.84V905.84ZM907.763 805.22C904.163 805.22 905.725 801.259 906.914 799.334C908.102 797.408 911.735 800.874 911.735 800.874C911.735 800.874 912.72 802.689 912.686 803.79C912.652 804.89 911.396 805.275 907.763 805.22V805.22Z" fill="black" fill-opacity="0.12"/>
<path d="M290.985 301.129C293.468 306.289 295.344 312.144 296.52 318.403C298.014 325.28 299.27 332.597 300.798 339.914C301.579 343.6 302.428 347.286 303.447 350.916C303.956 352.787 304.534 354.602 305.145 356.418L305.79 358.178L306.333 359.279C306.921 360.457 307.62 361.478 308.404 362.304C310.794 364.332 313.397 365.619 316.078 366.1C316.956 366.351 317.812 366.776 318.625 367.366C319.202 367.873 319.665 368.663 319.95 369.621L333.532 409.506C335.68 416.454 338.386 422.91 341.58 428.706C343.242 431.635 345.06 434.323 347.012 436.738C348.018 438.012 349.086 439.153 350.204 440.149C351.183 441.071 352.234 441.774 353.328 442.239L392.514 517.993C405.621 543.52 418.796 568.881 431.733 594.573C435.977 606.291 440.154 618.119 444.195 630.002C446.232 635.943 448.235 641.995 450.137 648.046C451.952 654.384 453.982 660.554 456.215 666.531C461.774 677.277 468.258 686.67 475.468 694.423C482.29 702.268 488.758 710.89 494.823 720.224C497.764 724.896 500.499 729.896 503.007 735.188C505.528 740.902 508.345 746.258 511.428 751.197C517.699 760.925 524.745 769.251 532.379 775.953C539.815 782.83 547.557 788.552 554.382 795.758C556.073 797.419 557.695 799.257 559.238 801.26L560.324 802.8C560.268 803.282 560.165 803.746 560.019 804.175C558.084 809.544 555.657 814.404 552.82 818.589C540.532 837.015 527.656 854.387 514.246 870.632L489.594 900.945H504.161C509.255 894.343 514.348 887.741 519.441 881.03C532.832 863.966 545.566 845.594 557.574 826.016C560.858 820.868 563.599 814.884 565.69 808.301C566.458 805.628 566.579 802.585 566.029 799.774C565.646 798.228 565.013 796.879 564.196 795.868L562.905 794.108C561.151 791.9 559.326 789.843 557.438 787.946C549.968 780.464 542.192 775.018 534.891 768.581C527.563 762.453 520.769 754.776 514.688 745.751C511.716 741.127 508.98 736.123 506.504 730.787C503.824 725.273 500.884 720.104 497.709 715.328C491.399 706.016 484.73 697.361 477.743 689.417C470.811 682.107 464.557 673.234 459.169 663.065C457.018 657.353 455.057 651.458 453.295 645.406C451.36 639.299 449.288 633.303 447.251 627.306C443.108 615.313 438.864 603.485 434.483 591.712C421.274 566.241 408.405 540.384 395.4 514.693L356.452 437.673L355.943 436.683H354.89C354.078 436.355 353.301 435.836 352.581 435.143C351.666 434.278 350.792 433.304 349.967 432.227C348.247 429.949 346.646 427.446 345.179 424.745C342.249 419.214 339.773 413.094 337.81 406.535L325.009 366.21C324.262 363.747 323.08 361.698 321.613 360.324C320.341 359.234 318.981 358.438 317.573 357.958C315.593 357.537 313.668 356.608 311.868 355.208C311.677 355.011 311.505 354.77 311.359 354.492L310.849 353.337C310.849 353.722 310.849 352.787 310.612 352.567C310.087 351.058 309.622 349.496 309.219 347.891C308.356 344.55 307.607 341.134 306.978 337.658C305.586 330.616 304.466 323.245 302.971 315.653C301.726 308.911 299.86 302.513 297.437 296.673L297.606 296.178C297.712 295.802 297.802 295.416 297.878 295.022C297.952 294.257 297.952 293.477 297.878 292.712C297.805 291.441 297.498 290.236 296.995 289.254C296.492 288.273 295.817 287.56 295.06 287.21C294.3 286.93 293.511 286.93 292.751 287.21L291.698 287.706C291.141 287.975 290.597 288.306 290.068 288.696C288.176 289.963 286.339 291.434 284.567 293.097C281.172 296.178 277.776 299.534 274.381 303.054C267.644 310.122 261.454 318.47 255.942 327.921C254.478 330.525 253.181 333.364 252.071 336.393C251.163 338.796 250.154 341.093 249.049 343.27C246.74 347.836 244.193 352.402 241.613 356.913C236.418 365.935 231.12 375.013 225.959 384.42C220.589 393.884 215.674 403.999 211.256 414.678C208.811 420.949 207.555 426.01 205.585 431.182C203.655 436.257 201.558 441.16 199.303 445.87C197.028 450.602 194.618 455.223 192.105 459.899L188.505 467.216C187.86 468.536 187.215 469.911 186.536 471.507C185.942 472.97 185.409 474.495 184.94 476.073C181.884 484.16 175.432 492.082 169.592 499.564C166.28 503.496 163.2 507.916 160.39 512.767C157.602 517.821 155.166 523.356 153.123 529.271C149.283 540.429 145.88 551.968 142.936 563.82C139.813 575.263 137.198 587.311 134.04 597.819C130.726 608.647 126.876 619.024 122.529 628.846C118.182 638.804 113.429 648.376 108.641 658.059L101.408 672.802C98.8016 678.03 96.5264 683.67 94.6171 689.637C93.3498 695.182 91.7221 700.493 89.7614 705.481C87.7919 710.487 85.5167 715.383 83.2077 720.389C78.5683 730.319 74.2393 740.62 70.2366 751.252L33.5301 815.728L15.0918 848.076C8.87784 858.694 2.3583 868.872 -4.19522 878.994C-17.472 899.019 -31.0884 918.439 -44.7727 937.639C-58.457 956.839 -72.6846 975.489 -86.267 995.018C-88.7335 998.547 -91.3802 1001.73 -94.1787 1004.54L-88.8816 1000.68C-87.761 999.31 -86.6405 997.879 -85.486 996.284C-71.9035 976.919 -57.7778 958.379 -43.9916 939.344C-30.2055 920.31 -16.2497 901.385 -2.73514 881.745C4.05608 871.953 10.8473 862.05 17.2311 851.652L36.3143 820.184L74.4132 757.249V756.974C78.6055 746.592 83.1395 736.583 87.9956 726.991C90.3725 722.15 92.8512 717.199 95.1263 711.807C97.3938 706.406 99.3057 700.635 100.831 694.588C102.62 689.631 104.689 684.953 107.011 680.614L114.413 666.476C119.439 657.013 124.396 647.276 129.048 637.098C133.781 626.798 138.005 615.908 141.68 604.53C145.415 592.757 147.962 581.314 151.086 569.982C153.964 558.781 157.253 547.869 160.933 537.303C162.686 532.36 164.758 527.731 167.113 523.495C169.607 519.337 172.322 515.544 175.229 512.162C178.285 508.201 181.341 504.24 184.329 499.894C187.661 495.32 190.536 489.938 192.852 483.94C193.207 482.713 193.603 481.519 194.04 480.364C194.448 479.374 194.957 478.274 195.534 477.118L199.134 470.186C201.647 465.455 204.193 460.559 206.604 455.443C209.045 450.272 211.312 444.891 213.395 439.324C215.501 433.822 217.198 427.331 218.93 423.095C223.002 413.03 227.542 403.485 232.513 394.542L247.861 367.036C250.442 362.304 252.988 357.573 255.467 352.347C256.726 349.661 257.86 346.83 258.863 343.875C259.685 341.509 260.665 339.296 261.783 337.273C266.731 328.433 272.304 320.567 278.387 313.837C281.443 310.371 284.601 307.07 287.793 304.045C289.151 302.669 290.068 302.174 290.985 301.129Z" fill="black" fill-opacity="0.12"/>
<path fill-rule="evenodd" clip-rule="evenodd" d="M292.718 292.987C288.292 306.034 285.972 320.681 285.972 335.568C285.972 350.455 288.292 365.102 292.718 378.149C307.727 425.956 310.579 448.676 305.519 470.627C300.46 492.577 272.344 566.901 290.647 544.235C308.949 521.57 317.812 491.532 316.759 523.77C315.706 556.008 304.84 648.872 310.477 645.901C316.114 642.93 325.825 614.048 329.357 634.898C332.888 655.748 334.178 688.152 317.744 698.329C301.309 708.507 266.096 743.881 275.366 720.335C284.636 696.789 301.547 671.427 291.156 678.084C280.766 684.741 251.427 739.149 255.332 725.451C259.237 711.753 280.018 679.68 269.866 685.566C259.713 691.453 208.269 778.649 218.931 772.103C229.594 765.556 263.889 725.066 255.672 740.8C247.455 756.534 253.295 766.106 265.621 751.363C277.947 736.619 282.192 731.283 283.618 733.813C285.044 736.344 293.805 722.81 297.438 734.253C301.071 745.696 295.027 767.262 299.849 789.762C304.671 812.263 312.175 814.023 306.64 833.223C301.105 852.423 299.102 876.739 309.187 894.344C319.272 911.948 311.02 941.766 317.302 963.276C323.584 984.786 336.861 1050.69 305.418 1028.74C273.974 1006.79 245.96 975.049 222.259 964.871C198.558 954.694 178.116 976.259 171.495 967.622C164.873 958.985 159.882 957.444 147.556 960.965C135.23 964.486 128.201 967.237 142.225 941.38C156.248 915.524 175.094 866.121 152.411 890.823C129.729 915.524 121.851 959.37 93.9052 975.819C65.9593 992.268 55.9424 1005.64 44.5671 1014.33C33.1918 1023.02 39.3717 1022.86 11.7654 1022.86C-15.8409 1022.86 -61.0363 1017.35 -76.0449 1036.17C-76.0449 1036.17 -50.7817 1005.69 -41.4098 1001.95C-32.0379 998.21 -39.3385 979.12 -27.8274 977.029C-16.3162 974.939 -6.33308 981.705 5.0422 960.965C16.4175 940.225 21.0015 937.034 34.3123 935.494C47.6231 933.953 63.175 916.184 62.3601 912.003C61.5451 907.822 56.7913 912.773 50.2717 918.274C43.7522 923.776 59.949 881.03 76.8592 870.082C93.7693 859.135 97.2329 881.085 110.51 843.511C123.787 805.936 130.883 782.72 144.466 766.491C158.048 750.262 172.989 731.998 165.519 743.331C158.048 754.663 143.515 798.784 132.004 815.674C120.493 832.563 108.744 854.679 103.413 864.196C98.0817 873.713 91.0189 894.178 104.33 875.199C117.641 856.219 137.709 827.392 147.624 805.496C157.539 783.601 156.52 765.831 160.9 735.739C165.281 705.646 171.087 700.035 176.962 682.375C182.836 664.716 200.086 630.497 182.666 657.839C165.247 685.181 89.9664 793.833 78.6929 808.577C67.4195 823.321 57.81 828.767 43.7182 843.566C29.6264 858.364 29.3208 865.901 17.7417 872.723C6.16272 879.545 -9.42306 886.862 16.3156 850.718C42.0543 814.573 75.3992 749.877 82.0885 729.137C88.7779 708.397 114.551 650.302 125.756 633.578C136.962 616.854 144.805 571.027 151.868 549.957C158.931 528.887 183.685 489.112 193.872 469.197C204.059 449.282 217.098 417.319 225.892 396.798C234.687 376.278 244.534 366.046 252.208 348.881C258.363 334.051 266.116 321.137 275.095 310.757C283.007 301.845 292.718 292.987 292.718 292.987Z" fill="black" fill-opacity="0.12"/>
<path d="M871.576 300.779C875.584 294.957 879.276 288.589 882.612 281.745C885.77 274.318 884.479 273.162 888.215 269.641C891.95 266.121 910.66 256.658 909.233 251.982C908.486 249.616 879.793 260.674 875.277 262.545C873.249 262.887 871.301 264.015 869.599 265.835C867.897 267.654 866.49 270.111 865.498 272.997C861.593 281.414 857.926 287.961 857.926 287.961L871.576 300.779Z" fill="black" fill-opacity="0.12"/>
<path d="M892.764 255.943C900.947 253.137 908.859 250.442 909.232 251.982C909.911 254.182 906.006 257.483 901.354 260.784C898.554 258.89 895.685 257.273 892.764 255.943V255.943Z" fill="black" fill-opacity="0.12"/>
<path d="M854.396 289.501C856.4 290.326 863.157 289.996 868.284 295.003C873.411 300.009 876.4 308.646 878.709 310.186C881.018 311.727 890.254 317.173 886.858 318.218C883.463 319.264 874.362 313.267 871.849 312.277C869.337 311.287 855.143 308.261 852.155 304.245C849.167 300.229 848.759 297.588 846.892 296.488C845.382 295.208 843.753 294.335 842.07 293.902C841.085 293.902 836.433 294.727 836.739 293.902C837.045 293.077 842.036 290.546 842.512 289.226C843.342 287.613 844.463 286.464 845.719 285.94C846.974 285.417 848.299 285.546 849.507 286.31C853.072 288.676 854.396 289.501 854.396 289.501Z" fill="black" fill-opacity="0.12"/>
<path d="M830.455 235.257C831.61 232.891 840.133 248.405 844.038 254.237C847.943 260.068 857.62 270.741 860.574 275.032C863.107 280.668 865.088 286.903 866.449 293.517C867.434 297.423 868.384 301.109 869.335 304.024C871.135 309.526 876.67 314.202 880.201 316.678C876.806 315.082 873.41 312.992 871.95 312.441C869.403 311.396 855.244 308.426 852.255 304.409C849.267 300.393 848.86 297.753 846.992 296.653C845.482 295.373 843.853 294.5 842.17 294.067C840.446 294.426 838.7 294.426 836.975 294.067C837.107 293.774 837.221 293.461 837.315 293.132C839.164 292.106 840.94 290.759 842.612 289.116C843.113 288.018 843.779 287.146 844.547 286.585C845.505 286.408 846.476 286.552 847.398 287.006C848.321 287.46 849.177 288.215 849.912 289.226C850.863 290.271 851.406 290.106 851.338 287.355C851.267 285.51 851.131 283.674 850.931 281.854C850.082 274.097 836.771 254.952 833.613 250.221C830.455 245.49 829.301 237.623 830.455 235.257Z" fill="black" fill-opacity="0.12"/>
<path d="M833.511 250.551C830.353 245.82 829.3 237.623 830.455 235.257C831.066 233.992 833.647 237.568 836.499 242.134C835.397 244.898 834.486 247.85 833.783 250.936L833.511 250.551Z" fill="black" fill-opacity="0.12"/>
<path d="M840.981 290.766C840.37 292.362 841.252 293.462 841.931 294.122C840.252 294.477 838.551 294.477 836.872 294.122C837.004 293.829 837.118 293.516 837.212 293.187C838.06 292.637 839.86 291.646 840.981 290.766Z" fill="black" fill-opacity="0.12"/>
<path d="M870.998 311.067C871.27 310.021 873.307 313.047 874.394 313.927C875.48 314.808 881.185 316.953 881.185 318.219C881.185 319.484 876.669 317.008 874.733 316.128C873.126 315.301 871.784 313.483 870.998 311.067V311.067Z" fill="black" fill-opacity="0.12"/>
<path d="M844.243 290.657C844.221 290.831 844.241 291.013 844.297 291.165C844.354 291.318 844.443 291.431 844.549 291.482C844.602 291.517 844.66 291.53 844.717 291.523C844.774 291.515 844.83 291.487 844.879 291.439C844.928 291.391 844.97 291.325 845.001 291.247C845.032 291.168 845.052 291.08 845.058 290.987C845.073 290.9 845.077 290.809 845.07 290.72C845.063 290.631 845.044 290.545 845.015 290.467C844.987 290.39 844.949 290.323 844.903 290.27C844.858 290.218 844.807 290.181 844.752 290.162C844.699 290.137 844.643 290.131 844.588 290.142C844.532 290.154 844.479 290.184 844.432 290.231C844.384 290.277 844.343 290.339 844.31 290.412C844.278 290.485 844.255 290.569 844.243 290.657V290.657Z" fill="black" fill-opacity="0.12"/>
<path d="M655.553 189.982C660.605 187.264 665.509 183.873 670.216 179.846C674.581 178.331 679.125 178.966 683.266 181.667C686.491 184.439 692.747 190.774 698.515 186.735C701.228 184.624 703.814 182.105 706.237 179.212C708.143 178.025 710.343 171.769 708.486 169.631C708.486 169.631 714.106 152.606 718.261 152.369C722.415 152.131 742.258 147.855 736.687 144.45C731.115 141.045 716.794 144.925 715.426 145.083C713.178 145.74 711.044 147.177 709.171 149.296C707.298 151.415 705.731 154.165 704.576 157.357C701.594 166.305 701.74 168.998 700.616 170.423C699.716 171.472 698.706 172.25 697.635 172.719C694.045 171.541 690.539 169.763 687.176 167.414C684.832 165.519 682.236 164.593 679.618 164.717C677 164.842 674.442 166.013 672.171 168.126C666.55 172.878 650.715 190.615 655.553 189.982Z" fill="black" fill-opacity="0.12"/>
<path d="M726.619 150.309C721.596 148.805 716.407 150.206 711.957 154.268C709.434 158.56 707.145 163.196 705.114 168.126C705.718 167.983 706.333 168.043 706.921 168.302C707.51 168.561 708.059 169.013 708.536 169.63C708.536 169.63 714.156 152.605 718.311 152.368C719.875 152.368 723.834 151.576 727.793 150.546L726.619 150.309Z" fill="black" fill-opacity="0.12"/>
<path d="M702.817 178.103C701.497 178.103 698.223 181.112 694.655 180.479C691.087 179.845 684.538 170.422 680.725 168.205C676.412 167.319 672.035 168.649 668.213 172.006C661.468 178.974 651.644 190.456 655.554 189.981C660.606 187.263 665.51 183.873 670.217 179.845C674.582 178.331 679.126 178.965 683.267 181.667C686.492 184.438 692.748 190.773 698.516 186.735C701.229 184.623 703.815 182.105 706.238 179.212C706.755 178.839 707.221 178.3 707.607 177.628C704.919 180.162 704.136 178.262 702.817 178.103Z" fill="black" fill-opacity="0.12"/>
<path d="M708.633 174.145C710.734 173.195 714.498 172.007 711.663 171.294C710.617 170.943 709.554 170.731 708.486 170.661C708.511 171.188 708.511 171.717 708.486 172.245C708.613 172.856 708.663 173.502 708.633 174.145V174.145Z" fill="black" fill-opacity="0.12"/>
<path d="M706.432 170.66C706.487 170.773 706.518 170.912 706.518 171.056C706.518 171.2 706.487 171.34 706.432 171.452C706.396 171.527 706.35 171.588 706.298 171.631C706.246 171.673 706.188 171.696 706.13 171.698C706.071 171.7 706.013 171.68 705.96 171.641C705.907 171.602 705.859 171.543 705.822 171.47C705.784 171.397 705.758 171.312 705.743 171.22C705.729 171.128 705.728 171.032 705.739 170.939C705.751 170.846 705.775 170.759 705.81 170.683C705.846 170.607 705.891 170.545 705.943 170.502C706.023 170.432 706.116 170.41 706.205 170.439C706.294 170.467 706.374 170.546 706.432 170.66V170.66Z" fill="black" fill-opacity="0.12"/>
<path d="M662.691 178.025C657.314 184.122 652.671 190.378 655.555 189.982C658.72 188.436 661.808 186.504 664.792 184.202C664.112 183.61 663.552 182.712 663.179 181.616C662.806 180.52 662.636 179.273 662.691 178.025V178.025Z" fill="black" fill-opacity="0.12"/>
<path d="M727.986 143.104C730.968 145.322 728.671 150.31 728.671 150.31C734.585 148.727 739.961 146.43 736.735 144.451C733.884 143.229 730.928 142.774 727.986 143.104V143.104Z" fill="black" fill-opacity="0.12"/>
<path d="M697.831 186.101C697.831 185.072 695.632 187.051 694.556 187.447C693.481 187.843 688.251 187.922 688.203 189.031C688.154 190.139 692.259 189.427 694.068 189.031C695.51 188.89 696.862 187.838 697.831 186.101Z" fill="black" fill-opacity="0.12"/>
<path d="M836.907 142.982C841.958 140.264 846.863 136.873 851.569 132.846C855.934 131.331 860.479 131.966 864.619 134.667C867.845 137.439 874.101 143.774 879.868 139.735C882.582 137.624 885.167 135.105 887.591 132.212C889.497 131.025 891.696 124.769 889.839 122.631C889.839 122.631 895.46 105.606 899.614 105.369C903.769 105.131 923.612 100.855 918.04 97.45C912.468 94.045 898.148 97.9251 896.779 98.0835C894.531 98.7404 892.398 100.177 890.525 102.296C888.652 104.415 887.084 107.165 885.929 110.357C882.948 119.305 883.094 121.998 881.97 123.423C881.069 124.472 880.059 125.25 878.989 125.719C875.398 124.541 871.893 122.763 868.529 120.414C866.186 118.519 863.59 117.593 860.972 117.717C858.354 117.842 855.796 119.013 853.525 121.126C847.904 125.878 832.068 143.615 836.907 142.982Z" fill="black" fill-opacity="0.12"/>
<path d="M907.973 103.309C902.95 101.805 897.76 103.206 893.31 107.268C890.787 111.56 888.498 116.196 886.468 121.126C887.071 120.983 887.686 121.043 888.275 121.302C888.864 121.561 889.413 122.013 889.889 122.63C889.889 122.63 895.51 105.605 899.664 105.368C901.228 105.368 905.187 104.576 909.146 103.546L907.973 103.309Z" fill="black" fill-opacity="0.12"/>
<path d="M884.17 131.103C882.851 131.103 879.576 134.112 876.008 133.479C872.44 132.845 865.891 123.422 862.079 121.205C857.765 120.319 853.389 121.649 849.567 125.006C842.822 131.974 832.998 143.456 836.908 142.981C841.959 140.263 846.864 136.873 851.57 132.845C855.935 131.331 860.48 131.965 864.62 134.667C867.846 137.438 874.102 143.773 879.869 139.735C882.583 137.623 885.168 135.105 887.592 132.212C888.109 131.839 888.575 131.3 888.96 130.628C886.272 133.162 885.49 131.262 884.17 131.103Z" fill="black" fill-opacity="0.12"/>
<path d="M889.986 127.145C892.088 126.195 895.851 125.007 893.017 124.294C891.97 123.943 890.908 123.731 889.84 123.661C889.865 124.188 889.865 124.717 889.84 125.245C889.967 125.856 890.016 126.502 889.986 127.145V127.145Z" fill="black" fill-opacity="0.12"/>
<path d="M887.785 123.66C887.841 123.773 887.871 123.912 887.871 124.056C887.871 124.2 887.841 124.34 887.785 124.452C887.749 124.527 887.704 124.588 887.652 124.631C887.599 124.673 887.542 124.696 887.483 124.698C887.425 124.7 887.367 124.68 887.313 124.641C887.26 124.602 887.213 124.543 887.175 124.47C887.138 124.397 887.111 124.312 887.097 124.22C887.082 124.128 887.081 124.032 887.093 123.939C887.104 123.846 887.129 123.759 887.164 123.683C887.199 123.607 887.245 123.545 887.297 123.502C887.377 123.432 887.469 123.41 887.559 123.439C887.648 123.467 887.728 123.546 887.785 123.66V123.66Z" fill="black" fill-opacity="0.12"/>
<path d="M844.044 131.025C838.668 137.122 834.025 143.378 836.908 142.982C840.073 141.436 843.161 139.504 846.146 137.202C845.465 136.61 844.905 135.712 844.532 134.616C844.159 133.52 843.99 132.273 844.044 131.025V131.025Z" fill="black" fill-opacity="0.12"/>
<path d="M909.34 96.1045C912.321 98.3216 910.024 103.31 910.024 103.31C915.938 101.727 921.314 99.4302 918.088 97.4506C915.237 96.2288 912.282 95.774 909.34 96.1045V96.1045Z" fill="black" fill-opacity="0.12"/>
<path d="M879.185 139.101C879.185 138.072 876.985 140.051 875.91 140.447C874.835 140.843 869.605 140.922 869.556 142.031C869.507 143.139 873.613 142.427 875.421 142.031C876.864 141.89 878.215 140.838 879.185 139.101Z" fill="black" fill-opacity="0.12"/>
<path d="M770.956 923.83C770.793 922.697 770.413 921.676 769.869 920.915C771.329 925.976 771.737 928.121 770.956 923.83Z" fill="black" fill-opacity="0.12"/>
<path d="M924.097 967.072C916.049 955.299 911.261 921.19 905.964 913.874C900.667 906.557 885.59 868.487 864.572 834.214C843.553 799.94 851.261 804.726 847.186 799.06C843.111 793.393 847.186 761.155 820.565 747.567C793.943 733.978 785.963 660.04 785.963 660.04C768.752 632.988 752.592 604.234 737.576 573.943C737.576 573.943 715.538 543.685 712.279 533.233H711.701C711.701 530.922 711.701 530.592 711.498 533.233C710.838 533.466 710.168 533.613 709.494 533.673C702.431 534.938 702.431 548.417 690.139 563.105C686.519 567.726 683.661 573.725 681.818 580.569C679.976 587.413 679.206 594.888 679.579 602.33C674.028 609.38 669.103 617.637 664.944 626.866C660.835 637.869 644.57 664.881 642.091 691.838C639.613 718.794 639.748 700.42 632.108 709.002C626.234 715.604 629.29 712.138 623.993 717.529L624.298 717.254L623.993 717.529C622.423 718.15 620.88 718.94 619.375 719.895L618.526 720.445C617.193 721.284 615.89 722.239 614.621 723.306C613.908 723.911 613.195 724.681 612.482 725.396C611.769 726.111 610.716 727.047 609.867 728.037C608.247 729.943 606.726 732.059 605.317 734.363C593.908 753.288 597.541 746.356 594.315 750.262C594.315 749.932 594.315 749.932 594.315 750.262C593.568 751.198 588.373 758.404 587.184 759.835L586.336 760.825L583.687 763.796L582.363 765.171C581.649 765.886 580.937 766.657 580.224 767.317L577.032 770.397H576.828L576.454 770.728L573.602 773.533L572.108 775.074L570.512 776.779C569.867 777.494 569.29 778.264 568.712 779.035C568.135 779.805 567.965 779.915 567.66 780.355C566.745 781.599 565.893 782.96 565.113 784.426L564.128 786.186L563.721 786.957L563.381 787.507C563.265 787.722 563.141 787.924 563.008 788.112L562.804 788.497L562.532 788.827L562.329 789.102H562.125H561.751C560.835 788.332 559.952 783.601 551.225 782.556H549.222H548.542H547.558H545.792H545.045H544.807L544.468 782.941C543.483 784.866 543.755 789.432 541.412 799.445L540.461 803.241C540.053 804.836 539.578 806.487 539.001 808.302C539.001 808.687 538.729 809.072 538.627 809.512L537.031 814.298L535.775 817.709L534.451 821.23C533.466 823.816 532.345 826.457 531.055 829.317C510.681 876.739 531.055 829.317 498.254 871.623C496.386 874.044 494.858 876.134 493.126 878.06L491.7 879.765C490.681 881.03 489.696 882.185 488.814 883.176L487.489 884.661C486.674 885.596 485.893 886.367 485.18 887.137L484.196 888.127C483.438 888.908 482.656 889.624 481.853 890.273H481.649C481.024 890.842 480.364 891.303 479.679 891.648H479.272C478.926 891.811 478.575 891.94 478.219 892.033H477.404C477.168 892.093 476.928 892.093 476.691 892.033H476.488C476.242 891.933 476.018 891.723 475.842 891.428C475.443 890.63 475.143 889.715 474.96 888.732V888.732L474.756 888.017C474.687 887.883 474.63 887.735 474.586 887.577L474.382 887.192L473.907 886.752H473.058H472.684L471.87 887.247L471.394 887.632C470.919 888.072 470.342 888.622 469.696 889.337C466.358 893.051 462.404 895.039 458.355 895.039C454.306 895.039 450.352 893.051 447.014 889.337L438.423 908.977L438.185 909.692C436.759 913.543 430.647 929.883 422.701 946.992C421.037 950.568 419.306 954.089 417.506 957.61C408.575 975.049 405.078 1005.75 394.959 1040.13H817.373C817.373 1038.98 817.373 1037.65 817.576 1036.28C817.882 1031.88 803.349 1017.52 802.975 1006.35C802.602 996.724 782.602 975.489 778.255 961.956C777.984 960.03 777.678 958.16 777.372 956.454C778.561 944.076 775.029 946.497 771.498 927.187C770.983 924.188 770.289 921.276 769.427 918.495C769.644 918.635 769.849 918.82 770.038 919.045C767.943 911.651 765.383 904.627 762.398 898.085C755.267 882.846 754.69 876.739 754.69 876.739V850.168C754.69 850.168 752.041 843.401 748.747 836.139C747.661 833.718 746.506 831.298 745.352 829.042C744.114 826.242 742.421 824.052 740.462 822.716L736.252 816.004L735.199 813.693C733.219 808.301 730.86 803.298 728.17 798.785C724.278 794.006 720.591 788.805 717.134 783.216C717.134 783.216 700.156 695.909 698.968 679.955C697.779 664.001 688.509 644.526 694.384 623.731C700.258 602.935 702.941 610.197 709.223 590.722C709.868 588.632 711.498 546.051 711.769 533.288C713.535 543.52 728.747 568.167 733.094 578.509C740.64 596.121 745.928 616.006 748.646 636.989C750.989 656.739 769.461 652.778 774.588 671.593C770.887 680.505 770.004 671.593 771.192 680.945C772.754 692.388 774.147 702.95 779.715 709.937C783.315 714.503 778.561 734.914 780.53 735.684C781.685 738.324 782.907 741.185 784.367 744.321C789.053 762.31 790.887 749.822 793.23 756.204C795.573 762.585 804.469 783.711 805.25 772.048C805.25 770.563 827.627 806.927 827.559 805.771C847.322 807.257 842.806 857.594 845.726 858.86C858.731 864.361 878.528 911.013 889.088 923.226C899.648 935.439 979.954 1042.06 979.954 1042.06C958.834 1013.78 928.545 973.343 924.097 967.072ZM459.985 1016.58C459.045 1019.7 457.907 1022.65 456.589 1025.39C457.601 1020.58 459.246 1016.19 461.411 1012.51L459.985 1016.58ZM643.551 794.714L657.372 790.147C650.206 800.682 643.405 811.848 636.998 823.596C633.079 829.749 628.804 835.276 624.23 840.1C619.85 845.601 622.295 849.562 615.979 852.918C610.634 855.652 605.823 860.602 602.023 867.277C599.247 871.924 596.067 875.89 592.583 879.05C589.343 882.804 586.46 887.308 584.027 892.418L577.235 900.67C579.425 893.172 582.426 886.371 586.098 880.59C590.512 875.419 594.655 866.782 599.137 862.931C603.619 859.08 606.641 855.009 611.803 851.048C616.964 847.087 614.655 849.672 618.899 842.796C623.144 835.919 628.543 828.767 629.528 827.282C630.512 825.796 630.207 820.515 631.939 819.36C633.67 818.204 643.551 794.604 643.551 794.604V794.714ZM477.948 972.243C482.192 967.402 504.569 933.734 510.546 929.222C518.525 922.951 497.438 955.574 492.175 962.836C486.912 970.098 473.703 977.084 477.948 972.133V972.243ZM532.821 937.915C521.378 955.134 512.447 974.719 504.739 980.165C497.031 985.612 485.961 989.848 484.094 996.284C480.319 1006.42 475.234 1015.11 469.187 1021.76C469.187 1021.76 482.973 988.032 485.045 984.951C487.116 981.871 492.141 984.951 504.909 973.949C517.676 962.946 524.671 944.241 531.225 931.313C537.778 918.385 548.61 899.955 548.61 899.955C548.61 899.955 574.621 869.807 580.835 859.74C587.049 849.672 596.081 813.418 603.178 799.775C610.274 786.131 616.047 802.801 616.047 802.801C593.161 832.398 596.251 848.792 588.645 859.19C596.115 849.452 601.48 843.841 601.48 843.841C611.671 823.069 622.818 803.575 634.825 785.526C642.804 773.643 630.139 801.37 622.261 820.79C614.383 840.21 604.095 848.847 593.093 863.866C582.091 878.885 576.93 887.467 564.773 902.706C552.617 917.945 556.624 908.977 571.565 884.221C576.917 875.364 582.586 867.024 588.543 859.245C580.936 869.642 570.682 871.843 567.184 879.38C563.687 886.917 557.507 894.894 556.997 899.185C556.488 903.476 552.142 909.032 548.101 917.339C544.06 925.647 544.264 920.585 532.821 937.805V937.915ZM660.462 847.747C652.747 856.797 645.685 867.223 639.409 878.83C629.222 897.645 634.248 894.784 633.059 911.233C631.871 927.682 633.059 911.233 617.134 925.646C601.208 940.06 617.134 933.183 610.852 953.429C604.57 973.674 601.718 972.628 605.487 947.927C609.256 923.226 607.117 939.675 590.173 955.794C573.229 971.913 593.84 974.334 589.697 989.628C585.555 1004.92 575.775 1001.02 555.096 1025.99C534.417 1050.97 566.267 979.285 566.267 979.285C566.267 979.285 571.565 952.108 582.566 937.475C589.822 929.905 597.667 923.929 605.894 919.705C616.081 915.469 609.697 895.059 612.686 888.292C615.674 881.525 631.531 871.788 640.563 858.585C649.596 845.381 649.731 836.579 663.721 817.489C677.711 798.399 671.701 811.988 675.776 816.829C679.85 821.67 660.462 847.637 660.462 847.637V847.747ZM694.18 744.376C679.579 763.191 681.548 773.643 676.693 780.3C671.837 786.957 665.351 788.332 663.11 793.118C660.869 797.904 656.93 803.021 656.523 805.716C656.115 808.412 653.433 811.988 650.852 817.324C648.271 822.661 648.475 819.47 641.175 830.418C633.874 841.365 628.136 853.798 623.28 857.319C618.424 860.84 611.327 863.481 610.139 867.607C607.746 874.07 604.499 879.594 600.631 883.781C600.631 883.781 609.426 862.326 610.818 860.345C612.21 858.365 615.334 860.345 623.45 853.303C631.565 846.262 636.047 834.379 640.428 826.181C644.808 817.984 651.463 806.211 651.463 806.211C651.463 806.211 668.034 787.012 671.837 780.575C675.64 774.138 681.548 751.143 686.065 742.395C690.581 733.648 694.18 744.266 694.18 744.266V744.376Z" fill="#573F00" fill-opacity="0.24"/>
<path fill-rule="evenodd" clip-rule="evenodd" d="M797.341 829.372C801.038 835.114 803.812 842.235 805.422 850.112C805.422 850.112 821.178 885.596 810.923 873.218C800.668 860.84 795.846 862.82 793.775 855.228C791.704 847.637 801.959 846.426 793.537 838.449C785.116 830.472 784.098 822.275 785.965 834.543C787.833 846.811 786.373 847.362 783.317 837.294C780.261 827.226 788.105 830.692 780.193 823.541C772.281 816.389 772.926 824.586 772.315 816.444C771.704 808.302 774.149 809.677 769.157 800.325C766.045 794.581 762.548 789.415 758.732 784.921C758.732 784.921 749.055 771.883 751.092 769.792C753.13 767.701 750.108 760.55 757.069 770.122C764.03 779.694 764.064 783.986 768.512 790.477C772.96 796.969 780.804 801.865 782.366 805.221C783.928 808.577 780.634 818.644 785.762 820.79C789.834 822.827 793.726 825.711 797.341 829.372V829.372Z" fill="black" fill-opacity="0.12"/>
<path fill-rule="evenodd" clip-rule="evenodd" d="M841.381 893.958C841.381 893.958 829.633 877.454 835.337 895.939C841.042 914.423 854.794 934.118 845.015 929.882C835.235 925.646 839.378 926.196 832.01 921.3C824.641 916.404 833.707 919.43 819.887 911.068C806.067 902.705 801.415 891.868 801.857 902.32C802.298 912.773 796.661 891.318 808.953 917.944C821.246 944.571 808.953 932.578 827.595 960.745C846.237 988.912 846.169 988.252 850.176 992.213C854.183 996.174 854.59 985.171 850.719 976.039C846.848 966.907 850.04 957.829 858.495 970.097C866.95 982.366 872.485 999.255 870.72 989.242C868.954 979.23 852.587 954.089 863.928 967.237C875.27 980.385 881.28 986.051 882.027 990.343C882.774 994.634 892.214 1011.08 886.204 993.148C880.193 975.214 881.517 975.269 887.324 979.065C893.13 982.861 899.752 995.569 894.421 980.055C889.09 964.541 895.677 965.256 891.738 956.674C887.799 948.092 890.108 943.691 884.302 939.84C878.496 935.989 878.156 942.48 876.186 940.445C873.182 935.549 869.996 930.956 866.645 926.691C861.483 921.19 863.419 928.287 856.22 915.304C851.804 907.277 846.824 900.114 841.381 893.958V893.958Z" fill="black" fill-opacity="0.12"/>
<path fill-rule="evenodd" clip-rule="evenodd" d="M735.166 725.78C742.043 735.846 748.552 746.556 754.657 757.853C758.415 763.681 762.508 768.913 766.881 773.477C771.058 778.979 768.715 782.61 774.793 785.8C779.937 788.406 784.565 793.17 788.206 799.609C790.875 804.035 793.916 807.832 797.238 810.887C800.359 814.508 803.138 818.844 805.489 823.76L811.941 831.627C809.85 824.433 806.974 817.91 803.452 812.372C799.207 807.421 795.234 799.114 790.922 795.428C786.61 791.742 783.757 787.836 778.766 783.985C773.774 780.134 776.049 782.72 771.974 776.063C767.9 769.406 762.738 762.64 761.788 761.154C760.837 759.669 761.176 754.718 759.479 753.562C757.781 752.407 748.443 730.071 748.443 730.071L735.166 725.78Z" fill="black" fill-opacity="0.12"/>
<path fill-rule="evenodd" clip-rule="evenodd" d="M791.533 786.296C796.329 791.415 800.206 798.493 802.773 806.816C806.168 817.049 817.747 833.938 822.705 843.236C827.662 852.533 830.583 861.995 829.938 855.504C828.631 847.645 825.941 840.572 822.195 835.149C819.886 833.058 817.985 824.641 812.858 817.434C807.73 810.227 807.323 807.697 807.085 804.671C807.479 802.026 807.338 799.247 806.684 796.742C806.03 794.236 804.897 792.137 803.452 790.752C799.456 785.451 795.752 779.598 792.382 773.258L791.533 786.296Z" fill="black" fill-opacity="0.12"/>
<path d="M396.828 785.581C397.037 783.765 397.162 781.926 397.202 780.079C397.27 776.668 396.251 777.329 396.828 785.581Z" fill="black" fill-opacity="0.12"/>
<path d="M433.263 1017.79C430.376 1012.29 428.271 1012.29 428.984 1006.13C429.697 999.97 426.166 996.999 422.77 987.262C419.374 977.524 425.249 977.469 428.271 968.172C431.293 958.875 424.095 953.098 415.707 948.422C407.32 943.746 414.383 933.953 419.103 929.937C423.823 925.921 421.853 922.071 418.831 908.702C415.809 895.334 417.133 895.994 419.612 886.697C422.091 877.399 414.655 872.448 409.425 875.034C404.196 877.619 405.351 860.565 407.965 848.462C410.58 836.359 404.57 832.563 399.85 805.826C398.629 799.218 397.721 792.468 397.133 785.636C396.43 791.708 395.408 797.671 394.077 803.461C391.599 815.344 392.38 821.285 393.025 833.223C393.67 845.161 387.524 853.138 386.234 858.034C384.943 862.931 389.255 862.491 392.244 866.507C395.232 870.523 390.308 871.403 384.671 874.594C379.035 877.784 382.94 880.755 384.909 888.402C386.879 896.049 381.921 891.373 372.719 894.949C363.517 898.525 381.106 909.417 382.906 918.715C384.705 928.012 375.673 913.873 368.882 921.52C362.091 929.167 379.069 937.639 384.841 946.552C390.614 955.464 380.529 951.448 374.111 951.008C367.693 950.568 374.111 954.859 378.967 961.185C383.823 967.512 375.164 964.376 369.12 962.891C363.075 961.405 372.515 969.052 375.673 977.965C378.831 986.877 372.277 994.744 364.434 995.184C356.59 995.624 362.057 988.362 365.724 979.45C369.391 970.538 366.641 973.949 364.57 967.127C362.498 960.305 367.558 958.655 367.048 951.008C366.539 943.361 356.861 945.506 355.367 940.005C353.873 934.504 361.412 933.238 362.974 928.287C364.535 923.336 358.254 927.077 356.42 924.106C354.586 921.135 356.828 917.944 362.838 908.152C368.848 898.36 363.517 895.224 358.525 893.958C353.534 892.693 358.016 888.457 357.744 882.956C357.473 877.454 353.805 873.438 350.783 871.073C347.761 868.707 350.138 862.821 352.243 853.028C354.349 843.236 347.659 845.381 347.659 838.835C347.659 832.288 347.116 829.262 343.449 818.039C339.782 806.817 342.26 790.863 341.887 785.306C341.513 779.75 341.106 794.053 340.189 801.48C339.196 808.911 338.448 816.422 337.948 823.981C337.439 832.673 331.802 843.511 326.946 854.128C322.09 864.746 329.697 860.455 333.364 864.306C337.031 868.157 334.009 869.367 331.394 871.073C329.634 872.198 328.144 874.214 327.147 876.821C326.15 879.427 325.698 882.486 325.86 885.541C326.199 893.573 321.445 892.968 314.111 891.868C306.776 890.768 312.413 897.644 316.861 903.366C321.309 909.087 325.112 912.278 325.792 916.734C326.471 921.19 322.905 923.721 317.914 921.41C312.922 919.1 313.601 916.514 309.119 919.045C304.637 921.575 306.505 926.472 311.496 928.342C316.488 930.213 323.822 930.708 324.739 936.484C325.656 942.261 311.157 941.986 309.323 942.481C307.489 942.976 317.982 954.309 320.053 959.37C322.124 964.431 317.574 959.04 312.073 957.169C306.572 955.299 317.371 962.671 319.544 969.272C321.717 975.874 316.793 968.282 310.511 969.272C304.229 970.263 311.496 972.133 315.028 976.864C317.323 981.073 318.537 986.545 318.423 992.158L329.629 1007.45C329.629 1007.45 359.646 1034.96 365.792 1047.06C371.938 1059.16 386.505 1064.45 395.809 1070.39C405.113 1076.33 402.227 1076.33 402.091 1058.72C401.955 1041.12 402.872 1035.18 404.196 1030.5C405.521 1025.83 411.395 1028.58 418.729 1038.53C426.064 1048.49 431.972 1041.29 435.232 1034.96C438.492 1028.63 436.081 1023.35 433.263 1017.79ZM330.274 911.453C326.267 915.634 327.116 905.951 326.878 903.751C326.64 901.55 329.73 900.89 330.274 900.56C331.938 899.185 334.247 907.327 330.24 911.453H330.274ZM331.836 890.548C324.841 894.509 327.116 886.972 326.946 884.386C326.776 881.8 329.289 882.516 331.598 883.121C333.907 883.726 335.775 879.215 335.775 879.215C337.439 876.464 338.797 880.48 339.442 883.781C340.087 887.082 338.831 886.642 331.802 890.823L331.836 890.548ZM396.352 1056.85C395.945 1068.35 394.485 1068.19 391.531 1064.67C388.576 1061.15 380.121 1055.42 373.432 1048.6C366.743 1041.78 362.227 1035.67 367.252 1037.6C372.278 1039.52 374.519 1035.67 372.957 1030.45C371.395 1025.22 381.208 1021.98 387.49 1022.14C393.772 1022.31 394.655 1027.64 396.352 1033.14C396.386 1033.31 396.76 1045.41 396.386 1056.85H396.352ZM390.003 889.062C383.992 889.062 386.607 882.516 388.577 879.325C390.546 876.134 396.624 881.855 396.624 881.855C396.624 881.855 398.254 884.826 398.186 886.752C398.118 888.677 396.081 889.172 390.037 889.062H390.003Z" fill="#337500" fill-opacity="0.32"/>
<path d="M988.104 789.102C988.285 787.522 988.387 785.922 988.41 784.316C988.512 781.07 987.561 781.62 988.104 789.102Z" fill="black" fill-opacity="0.12"/>
<path d="M1020.97 998.924C1018.36 993.918 1016.49 993.753 1017.1 988.361C1017.71 982.97 1014.59 980.109 1011.5 971.307C1008.41 962.505 1013.78 962.45 1016.49 954.033C1019.21 945.616 1012.69 940.444 1005.12 936.208C997.545 931.972 1003.93 923.17 1008.07 919.704C1012.21 916.238 1010.55 912.607 1007.83 900.504C1005.12 888.401 1006.31 889.007 1008.55 880.589C1010.79 872.172 1004.06 867.716 999.209 870.027C994.353 872.337 995.542 856.988 997.885 846.041C1000.23 835.093 994.828 831.682 990.55 807.531C989.454 801.569 988.637 795.482 988.105 789.321C987.472 794.811 986.552 800.203 985.355 805.44C983.114 816.168 983.827 821.559 984.404 832.287C984.981 843.015 979.446 850.332 978.122 854.733C976.798 859.134 980.839 858.749 983.589 862.38C986.339 866.011 981.789 866.836 976.798 869.697C971.806 872.557 975.27 875.198 977.036 882.13C978.801 889.062 974.319 884.825 966.034 888.071C957.748 891.317 973.606 901.165 975.168 909.582C976.73 917.999 968.648 905.18 962.502 912.057C956.356 918.934 971.704 926.636 976.934 934.723C982.163 942.81 973.029 939.124 967.222 938.739C961.416 938.354 967.222 942.205 971.602 947.926C975.983 953.648 968.207 950.787 962.74 949.467C957.273 948.146 965.932 954.968 968.648 963.11C971.365 971.252 965.456 978.239 958.461 978.624C951.466 979.009 956.322 972.462 959.65 964.43C962.978 956.398 960.465 959.259 958.597 953.428C956.73 947.596 961.314 945.726 960.838 938.849C960.363 931.972 951.704 934.063 950.278 929.057C948.852 924.05 955.745 922.895 957.069 918.439C958.394 913.983 952.791 917.338 951.127 914.643C949.463 911.947 951.5 909.142 956.933 900.284C962.366 891.427 957.545 888.566 953.029 887.411C948.512 886.256 952.553 882.24 952.315 877.454C952.078 872.667 948.92 868.816 946.034 866.726C943.147 864.635 945.456 859.244 947.358 850.222C949.259 841.199 943.215 843.29 943.215 837.348C943.215 831.407 942.74 828.711 939.412 818.589C936.084 808.466 938.36 793.998 937.986 789.046C937.612 784.095 937.307 796.913 936.458 803.625C935.569 810.33 934.9 817.106 934.454 823.925C933.979 831.792 928.886 841.585 924.505 851.432C920.125 861.279 926.984 856.933 930.312 860.619C933.64 864.305 930.889 865.24 928.546 866.781C926.951 867.782 925.599 869.594 924.693 871.944C923.787 874.295 923.376 877.058 923.521 879.819C923.826 887.136 919.548 886.531 912.892 885.596C906.237 884.66 911.364 890.767 915.405 895.938C919.446 901.109 922.841 903.97 923.453 908.041C924.064 912.112 920.838 914.368 916.356 912.222C911.874 910.077 912.451 907.821 908.41 910.132C904.369 912.442 906.033 916.843 910.549 918.494C915.066 920.144 921.653 920.694 922.502 925.866C923.351 931.037 910.346 930.762 908.58 931.367C906.814 931.972 916.39 942.04 918.292 946.606C920.193 951.172 916.05 946.331 911.059 944.625C906.067 942.92 915.881 949.467 917.85 955.628C919.82 961.79 915.371 954.803 909.701 955.628C904.03 956.453 910.583 958.214 913.775 962.56C915.838 966.365 916.92 971.308 916.797 976.368L926.984 990.177C926.984 990.177 954.149 1014.99 959.65 1025.94C965.151 1036.88 978.36 1041.67 986.815 1047.01C995.27 1052.34 992.621 1052.51 992.485 1036.5C992.35 1020.49 993.199 1015.21 994.387 1010.97C995.575 1006.74 1000.91 1009.27 1007.53 1018.23C1014.15 1027.2 1019.48 1020.76 1022.47 1014.99C1025.46 1009.21 1023.59 1003.93 1020.97 998.924ZM927.935 902.815C924.336 906.556 925.117 897.919 924.981 895.828C924.845 893.738 927.561 893.243 927.935 892.968C929.463 891.702 931.534 899.074 927.935 902.815V902.815ZM929.361 883.945C923.045 887.466 925.117 880.699 924.913 878.444C924.709 876.188 927.052 876.738 929.124 877.289C931.195 877.839 932.927 873.768 932.927 873.768C934.387 871.292 935.643 874.868 936.322 877.839C937.001 880.809 935.813 880.369 929.361 883.945V883.945ZM987.698 1034.19C987.324 1044.53 986 1044.42 983.351 1041.23C980.703 1038.04 973.164 1032.92 967.018 1026.71C960.872 1020.49 956.832 1015.1 961.416 1016.97C966 1018.84 967.969 1015.21 966.543 1010.48C965.117 1005.75 974.013 1002.83 979.684 1003C985.355 1003.16 986.17 1007.89 987.698 1012.9C987.698 1012.9 988.037 1023.85 987.698 1034.19V1034.19ZM981.993 882.625C976.526 882.625 978.903 876.683 980.669 873.768C982.435 870.852 987.969 876.078 987.969 876.078C987.969 876.078 989.429 878.774 989.362 880.479C989.294 882.185 987.426 882.68 981.993 882.625V882.625Z" fill="#337500" fill-opacity="0.32"/>
<path d="M-59.1003 1112.88C-59.1003 1112.88 -5.68731 1121.51 23.3112 1090.87C52.3097 1060.23 77.9804 1049.34 97.3014 1038.39C116.622 1027.44 158.422 992.177 113.77 1010.17C69.1178 1028.16 41.7493 1061.05 8.81186 1082.23C-24.1255 1103.42 -24.567 1108.09 -33.7351 1102.59C-42.9032 1097.09 -46.9779 1082.45 -51.4262 1076.02C-55.8744 1069.58 -53.939 1052.42 -56.8932 1059.51C-59.8473 1066.61 -59.1003 1112.88 -59.1003 1112.88Z" fill="black" fill-opacity="0.12"/>
<path d="M167.487 1023.35C182.021 1070.5 228.88 1026.43 254.041 1042.17C279.203 1057.9 340.596 1076.61 344.976 1063.29C349.356 1049.98 351.258 1031.83 310.137 1010.37C286.176 998.327 263.007 982.479 240.968 963.059C239.542 961.463 231.325 995.132 196.011 997.497C160.696 999.863 131.154 989.685 121.036 988.915C110.917 988.145 162.632 1007.84 167.487 1023.35Z" fill="black" fill-opacity="0.12"/>
<rect x="223.5" y="236.5" width="576.422" height="576.422" rx="288.211" stroke="#3A3A3C" stroke-width="53"/>
<path d="M624.663 698.014C632.185 705.536 511.347 431.636 511.831 442.263V637.837C511.831 637.837 617.141 690.492 624.663 698.014Z" fill="#FF453A"/>
<path d="M511.831 442.263C511.347 431.636 632.185 705.536 624.663 698.014C617.141 690.492 511.831 637.837 511.831 637.837M511.831 442.263C511.831 518.639 511.831 637.837 511.831 637.837M511.831 442.263C506.276 447.334 399 690.492 399 698.014C399 705.536 511.831 637.837 511.831 637.837M511.831 442.263V637.837" stroke="#FF453A" stroke-width="19" stroke-linecap="round"/>
<path d="M480.938 399.187C486.563 399.187 489.938 395.75 489.938 389.75V338.937H490.5L529.625 393.75C532.5 397.75 535 399.187 539.063 399.187C545 399.187 548.313 395.875 548.313 390V316.062C548.313 310 545 306.562 539.313 306.562C533.625 306.562 530.25 310 530.25 316.062V366.562H529.75L490.75 312.062C487.875 308.125 485.25 306.562 481.375 306.562C475.375 306.562 471.875 310 471.875 316V389.75C471.875 395.75 475.25 399.187 480.938 399.187Z" fill="#242426"/>
<path d="M210.87 341.752C226.075 312 252.609 282.13 281.121 257.871C309.659 233.591 339.847 215.213 362.155 208.184C365.149 207.241 367.952 205.763 369.093 203.146C370.368 200.222 368.991 197.442 367.342 195.448C365.633 193.381 362.982 191.305 359.762 189.24C356.498 187.146 352.464 184.947 347.826 182.676C329.315 173.611 300.381 163.01 269.971 153.083C239.523 143.142 207.446 133.829 182.568 127.35C170.134 124.111 159.461 121.572 151.673 120.015C147.789 119.239 144.559 118.695 142.161 118.437C140.973 118.309 139.897 118.241 139.01 118.271C138.569 118.285 138.085 118.326 137.616 118.43C137.217 118.518 136.461 118.726 135.793 119.315C135.111 119.917 134.813 120.659 134.679 121.048C134.522 121.507 134.426 121.987 134.362 122.427C134.233 123.312 134.181 124.399 134.178 125.605C134.171 128.04 134.362 131.345 134.717 135.329C135.43 143.319 136.831 154.301 138.78 167.083C142.681 192.653 148.802 225.577 156.093 256.443C163.366 287.23 171.864 316.242 180.579 333.82C182.767 338.232 185.014 342.021 187.32 344.968C189.592 347.874 192.11 350.208 194.912 351.348C197.916 352.57 201.021 352.319 203.878 350.471C206.55 348.741 208.838 345.73 210.87 341.752Z" fill="#64D2FF" stroke="#64D2FF" stroke-width="6" stroke-linecap="round"/>
</g>
</g>
<defs>
<filter id="filter0_i_1546_1177" x="0" y="0" width="1024" height="1024" filterUnits="userSpaceOnUse" color-interpolation-filters="sRGB">
<feFlood flood-opacity="0" result="BackgroundImageFix"/>
<feBlend mode="normal" in="SourceGraphic" in2="BackgroundImageFix" result="shape"/>
<feColorMatrix in="SourceAlpha" type="matrix" values="0 0 0 0 0 0 0 0 0 0 0 0 0 0 0 0 0 0 127 0" result="hardAlpha"/>
<feMorphology radius="44" operator="dilate" in="SourceAlpha" result="effect1_innerShadow_1546_1177"/>
<feOffset/>
<feGaussianBlur stdDeviation="3.5"/>
<feComposite in2="hardAlpha" operator="arithmetic" k2="-1" k3="1"/>
<feColorMatrix type="matrix" values="0 0 0 0 0 0 0 0 0 0 0 0 0 0 0 0 0 0 0.2 0"/>
<feBlend mode="normal" in2="shape" result="effect1_innerShadow_1546_1177"/>
</filter>
<clipPath id="clip0_1546_1177">
<rect width="1024" height="1024" rx="200" fill="white"/>
</clipPath>
</defs>
</svg>
